<svg id="svg" version="1.1" xmlns="http://www.w3.org/2000/svg" xmlns:xlink="http://www.w3.org/1999/xlink" width="400" height="565.6565656565656" viewBox="0, 0, 400,565.6565656565656"><g id="svgg"><path id="path0" d="M0.000 282.852 L 0.000 565.704 200.000 565.704 L 400.000 565.704 400.000 282.852 L 400.000 0.000 200.000 0.000 L 0.000 0.000 0.000 282.852 M210.489 48.231 C 212.841 48.349,213.563 48.469,214.069 48.827 C 214.429 49.081,215.784 49.473,217.201 49.734 C 254.481 56.583,276.828 85.887,267.265 115.380 C 264.889 122.708,260.561 129.489,254.178 135.887 C 252.626 137.443,250.993 139.246,250.549 139.894 C 249.217 141.838,243.865 152.271,242.554 155.476 C 241.401 158.297,241.242 158.454,239.329 158.658 C 237.976 158.803,237.592 158.760,236.963 158.396 C 236.336 158.032,236.075 158.002,235.374 158.218 C 233.531 158.783,232.821 157.659,233.196 154.764 C 233.607 151.589,233.479 149.776,232.786 148.952 C 231.810 147.793,232.565 145.669,233.953 145.669 C 234.126 145.669,234.753 145.249,235.346 144.735 C 235.940 144.221,237.086 143.414,237.894 142.940 C 247.130 137.531,253.895 130.186,257.145 122.038 C 257.443 121.293,257.943 120.496,258.257 120.267 C 258.851 119.834,259.988 117.102,259.988 116.106 C 259.988 115.805,260.202 115.074,260.464 114.482 C 261.995 111.020,262.841 98.747,261.807 95.001 C 260.636 90.758,260.141 89.503,259.221 88.439 C 258.411 87.504,258.308 87.256,258.425 86.536 C 258.536 85.847,258.267 85.071,256.822 81.923 C 254.767 77.443,253.648 74.736,252.921 72.481 C 251.523 68.144,239.943 60.308,229.228 56.447 C 222.553 54.042,212.545 51.984,211.118 52.722 C 210.473 53.055,210.174 53.060,208.379 52.771 C 200.953 51.572,189.956 53.086,180.672 56.584 C 178.338 57.464,174.515 58.875,172.176 59.720 C 161.055 63.740,153.465 68.340,146.472 75.301 C 139.270 82.468,137.003 87.178,136.479 96.052 C 136.140 101.799,135.816 104.326,135.245 105.662 L 134.764 106.786 136.004 109.315 C 136.686 110.706,137.542 112.428,137.907 113.141 L 138.569 114.437 141.471 114.438 C 144.873 114.439,146.100 114.844,146.461 116.087 C 146.790 117.218,146.970 117.483,147.633 117.808 C 149.973 118.957,158.694 119.444,161.313 118.572 C 162.191 118.280,163.724 117.960,164.719 117.861 C 165.715 117.762,167.378 117.440,168.415 117.144 C 170.765 116.474,175.981 116.410,178.096 117.025 C 179.817 117.525,180.161 118.072,179.947 119.963 L 179.784 121.404 180.800 122.370 C 183.172 124.627,187.160 125.362,185.607 123.256 C 183.436 120.314,185.955 115.206,188.329 117.734 C 188.632 118.056,189.260 118.385,189.725 118.466 C 190.978 118.682,192.167 119.549,193.006 120.856 C 193.416 121.494,194.005 122.153,194.315 122.319 C 194.867 122.614,195.404 123.475,195.404 124.064 C 195.404 125.544,198.870 129.528,202.649 132.391 C 205.733 134.728,206.003 135.023,207.768 137.981 C 210.453 142.479,210.363 147.083,207.591 147.083 C 207.044 147.083,206.226 147.200,205.773 147.343 C 205.320 147.486,202.882 147.644,200.354 147.695 C 197.826 147.745,195.266 147.852,194.665 147.933 C 193.123 148.142,192.432 147.477,192.712 146.054 C 193.244 143.350,192.692 139.059,191.616 137.537 C 191.250 137.018,190.875 136.276,190.783 135.887 C 190.582 135.032,190.321 134.834,189.387 134.830 C 188.994 134.828,188.459 134.677,188.198 134.494 C 187.408 133.940,185.129 133.648,181.512 133.637 C 168.827 133.597,166.971 132.867,163.604 126.597 C 162.879 125.248,162.074 124.031,161.815 123.893 C 161.556 123.755,160.972 123.413,160.519 123.132 C 159.805 122.692,159.215 122.604,156.158 122.479 C 151.387 122.285,148.503 121.813,145.736 120.775 C 143.531 119.947,143.372 119.921,142.119 120.179 C 140.326 120.547,139.901 120.521,138.837 119.979 C 137.820 119.460,137.469 119.521,136.257 120.430 C 134.881 121.463,130.348 126.596,129.060 128.580 C 127.624 130.792,127.260 131.133,126.331 131.133 C 123.939 131.133,124.181 128.109,126.798 125.297 C 127.410 124.639,128.495 123.196,129.209 122.090 C 130.648 119.858,132.523 117.884,134.055 116.986 C 135.188 116.322,135.346 115.678,134.679 114.437 C 134.470 114.048,133.991 112.993,133.614 112.092 C 132.645 109.776,132.460 109.616,130.943 109.772 C 128.581 110.016,128.284 108.186,130.223 105.348 L 131.291 103.786 131.291 100.801 C 131.291 94.935,132.272 89.771,134.449 84.187 C 136.820 78.106,137.394 77.444,146.924 69.805 C 148.114 68.851,149.935 67.310,150.972 66.381 C 152.009 65.452,153.128 64.573,153.457 64.429 C 153.787 64.285,155.048 63.454,156.259 62.581 C 159.174 60.479,162.027 58.756,165.430 57.042 C 166.966 56.268,168.615 55.323,169.095 54.942 C 171.904 52.710,185.875 48.991,194.814 48.096 C 196.938 47.884,204.950 47.952,210.489 48.231 M170.065 120.238 C 164.605 121.452,164.674 121.371,166.346 124.573 C 169.129 129.902,170.372 130.327,183.265 130.353 C 184.950 130.356,186.749 130.456,187.264 130.576 C 188.560 130.876,188.810 130.607,188.642 129.092 C 188.466 127.504,188.427 127.475,186.867 127.802 C 183.010 128.611,177.637 125.505,176.388 121.744 C 175.985 120.528,175.822 120.309,175.231 120.181 C 174.221 119.962,171.152 119.996,170.065 120.238 M226.652 148.272 C 227.141 148.574,227.819 148.733,228.619 148.733 C 230.705 148.733,232.297 150.149,232.580 152.257 C 232.802 153.910,231.949 154.459,230.046 153.889 C 229.216 153.640,229.069 153.679,227.730 154.506 C 224.980 156.203,223.166 155.742,222.396 153.151 C 221.928 151.576,221.917 148.656,222.377 148.274 C 223.350 147.467,225.348 147.466,226.652 148.272 M201.531 150.097 C 203.673 151.160,203.858 151.208,205.802 151.212 C 208.108 151.217,208.464 151.395,208.869 152.747 C 209.498 154.847,208.584 155.633,205.314 155.804 C 202.094 155.973,202.601 157.318,206.001 157.626 C 208.027 157.810,208.475 158.349,208.465 160.590 C 208.453 163.716,207.569 164.462,204.413 164.009 C 202.788 163.776,202.385 163.802,200.654 164.255 C 196.718 165.284,195.639 164.546,195.639 160.826 L 195.639 159.233 197.086 157.877 C 198.630 156.430,198.627 156.411,196.810 156.169 C 195.158 155.949,194.341 155.334,194.023 154.074 C 192.823 149.305,196.262 147.483,201.531 150.097 M228.457 158.235 C 229.400 158.701,230.778 159.345,231.520 159.667 C 233.109 160.355,233.870 161.361,233.771 162.640 L 233.707 163.465 231.703 163.465 C 229.866 163.465,229.613 163.524,228.655 164.172 C 227.366 165.045,224.753 165.189,223.650 164.448 C 222.493 163.671,221.390 159.137,222.022 157.751 C 222.464 156.782,226.065 157.053,228.457 158.235 M208.106 165.794 C 208.466 166.178,208.737 166.941,208.964 168.210 C 209.491 171.167,209.429 171.917,208.579 172.885 L 207.847 173.718 208.825 173.718 C 210.495 173.718,210.959 174.418,210.969 176.949 C 210.974 178.089,211.117 179.607,211.289 180.323 C 211.873 182.764,211.263 183.267,207.478 183.467 C 205.858 183.553,203.839 183.849,202.308 184.225 C 198.476 185.166,197.913 184.764,197.057 180.486 C 196.214 176.268,196.524 175.840,200.413 175.840 C 203.134 175.840,205.030 175.391,206.718 174.346 L 207.543 173.836 206.779 173.762 C 206.359 173.722,204.344 173.970,202.302 174.313 C 196.903 175.221,196.437 175.010,195.740 171.350 C 194.985 167.386,195.311 166.904,198.837 166.773 C 200.810 166.700,201.967 166.512,203.771 165.974 C 206.721 165.093,207.420 165.064,208.106 165.794 M228.774 166.501 C 229.432 166.808,230.624 167.540,231.423 168.128 C 232.252 168.738,233.258 169.262,233.767 169.348 C 235.981 169.722,237.360 171.233,237.360 173.285 C 237.360 175.433,236.304 175.617,232.875 174.069 C 230.990 173.218,230.882 173.197,229.695 173.463 C 227.410 173.974,227.418 174.102,229.855 175.958 L 232.022 177.608 234.151 177.554 C 236.816 177.486,237.122 177.718,237.975 180.454 C 239.055 183.917,238.636 184.395,235.695 183.051 C 233.492 182.043,233.408 182.038,231.989 182.793 C 229.596 184.067,226.686 183.526,226.001 181.681 C 224.825 178.513,224.897 175.685,226.177 174.816 L 227.009 174.250 225.879 173.668 C 224.544 172.981,224.145 172.295,223.398 169.404 C 222.893 167.453,222.889 167.346,223.287 166.947 C 224.386 165.846,226.924 165.640,228.774 166.501 M211.348 184.475 C 212.514 185.028,212.812 185.815,213.106 189.116 C 213.479 193.311,212.939 194.350,210.696 193.746 C 208.694 193.207,205.857 193.390,203.696 194.199 C 199.836 195.643,199.170 195.196,198.239 190.535 C 197.444 186.557,197.864 185.264,199.837 185.607 C 202.074 185.995,202.577 185.997,204.399 185.628 C 205.470 185.411,207.040 184.984,207.887 184.679 C 209.756 184.008,210.296 183.976,211.348 184.475 M231.114 185.215 C 231.503 185.414,232.192 185.865,232.646 186.218 C 233.745 187.073,234.180 187.148,236.404 186.864 C 239.098 186.520,239.766 187.078,240.748 190.490 C 241.673 193.706,240.984 194.317,237.596 193.282 C 235.463 192.631,234.599 192.677,233.281 193.513 C 231.911 194.382,231.912 194.466,233.294 195.469 C 235.174 196.834,235.432 196.915,237.909 196.926 C 240.713 196.938,241.092 197.232,242.282 200.319 C 243.666 203.907,243.264 204.311,239.563 203.046 C 236.578 202.026,234.997 202.004,233.533 202.960 C 232.424 203.685,232.467 203.793,234.143 204.474 C 234.897 204.780,235.912 205.295,236.399 205.617 C 237.631 206.433,238.818 206.715,241.020 206.716 C 243.704 206.718,244.884 207.843,244.898 210.413 C 244.907 212.280,243.910 212.599,242.054 211.322 C 240.068 209.956,238.716 210.039,237.291 211.614 C 236.919 212.024,236.977 212.099,238.446 213.094 C 241.238 214.986,241.407 215.061,243.582 215.358 C 246.609 215.772,247.774 216.926,248.121 219.850 C 248.387 222.100,247.114 222.563,244.040 221.332 C 241.960 220.499,241.713 220.485,239.755 221.099 C 236.915 221.989,236.376 221.738,234.940 218.857 C 233.322 215.610,233.232 213.651,234.663 212.807 C 235.642 212.230,235.558 212.015,234.276 211.810 C 232.157 211.471,229.632 205.590,231.087 204.383 C 231.568 203.983,231.575 203.510,231.102 203.328 C 230.607 203.138,229.736 201.165,228.981 198.522 C 228.298 196.133,228.261 196.418,229.457 194.790 C 229.620 194.568,229.509 194.288,229.073 193.821 C 227.363 191.988,225.856 186.536,226.799 185.593 C 227.782 184.609,229.615 184.449,231.114 185.215 M213.199 194.563 C 214.048 194.918,214.125 195.088,214.378 197.171 C 214.456 197.820,214.675 198.900,214.864 199.572 C 215.523 201.916,215.000 202.299,211.078 202.345 C 208.608 202.374,208.370 202.422,206.045 203.368 C 202.392 204.854,201.532 204.545,201.532 201.745 C 201.532 200.927,201.341 199.887,201.061 199.175 C 200.078 196.682,200.698 195.877,203.465 196.055 C 205.727 196.200,208.197 195.799,210.310 194.943 C 212.343 194.119,212.186 194.140,213.199 194.563 M215.616 204.082 C 215.794 204.306,215.915 205.199,215.921 206.350 C 215.926 207.395,216.084 208.674,216.271 209.193 C 216.458 209.711,216.612 210.591,216.614 211.149 C 216.617 211.938,216.750 212.276,217.218 212.681 C 217.693 213.092,217.865 213.542,218.047 214.850 C 218.353 217.048,218.632 217.860,219.714 219.696 C 220.844 221.613,220.852 222.052,219.777 222.939 L 218.930 223.637 219.785 223.920 C 220.880 224.281,221.212 224.813,221.698 226.989 C 221.916 227.961,222.346 229.363,222.656 230.105 C 223.974 233.268,223.019 234.357,218.579 234.755 C 215.253 235.053,213.915 235.323,212.100 236.064 C 208.182 237.662,207.251 237.301,206.722 233.978 C 206.581 233.091,206.151 231.741,205.767 230.980 C 204.408 228.289,204.864 227.205,207.459 226.958 C 211.235 226.598,215.662 225.369,217.823 224.080 L 218.766 223.518 218.066 223.377 C 216.556 223.076,213.491 223.858,211.324 225.097 C 207.559 227.252,205.314 226.458,204.672 222.744 C 204.496 221.724,204.090 220.325,203.769 219.637 C 203.059 218.111,203.033 217.269,203.663 216.249 L 204.143 215.472 203.663 214.575 C 203.312 213.921,203.182 213.238,203.182 212.054 C 203.182 210.808,203.038 210.109,202.562 209.050 C 201.406 206.473,202.217 205.759,206.819 205.305 C 208.660 205.123,210.207 204.818,211.298 204.421 C 214.116 203.396,215.011 203.325,215.616 204.082 M210.278 213.337 C 207.874 213.809,205.873 214.984,206.841 215.356 C 207.568 215.635,211.599 214.595,212.817 213.814 C 213.776 213.199,212.347 212.931,210.278 213.337 M241.249 223.192 C 241.768 223.431,242.457 223.916,242.781 224.269 C 243.612 225.176,244.340 225.501,245.964 225.693 C 247.902 225.922,248.155 226.134,249.656 228.789 C 252.337 233.534,251.931 234.862,248.391 232.932 C 246.339 231.814,244.632 231.373,243.189 231.589 C 241.149 231.895,240.308 231.064,238.798 227.255 C 237.165 223.136,238.029 221.705,241.249 223.192 M245.021 233.323 C 246.057 233.796,246.945 234.584,248.205 236.147 C 248.997 237.131,249.100 237.180,250.655 237.341 C 252.568 237.539,253.048 237.955,253.858 240.118 C 255.571 244.691,255.212 246.072,252.766 244.316 C 250.809 242.912,249.875 242.520,247.049 241.922 C 243.015 241.068,242.435 240.316,241.496 234.717 C 241.212 233.024,242.902 232.355,245.021 233.323 M224.361 235.491 C 224.877 236.045,225.103 236.950,225.103 238.462 C 225.103 239.201,225.353 239.989,225.959 241.160 C 226.735 242.660,226.804 242.944,226.691 244.191 C 226.570 245.523,226.591 245.588,227.367 246.275 C 228.137 246.957,228.167 247.048,228.167 248.677 C 228.167 250.215,228.247 250.500,229.029 251.767 C 230.974 254.918,230.177 256.320,226.330 256.514 C 224.121 256.626,223.422 256.777,220.709 257.728 C 216.751 259.117,216.266 258.979,215.440 256.238 C 215.176 255.361,214.617 254.241,214.157 253.666 C 212.989 252.204,212.732 251.288,213.187 250.201 C 213.617 249.172,213.553 249.016,212.626 248.830 C 211.570 248.619,211.199 247.659,210.989 244.594 C 210.839 242.398,210.703 241.759,210.177 240.780 C 208.937 238.467,209.553 237.740,212.971 237.483 C 215.737 237.276,217.164 236.930,219.757 235.839 C 222.077 234.862,223.663 234.742,224.361 235.491 M248.160 244.871 C 249.894 245.411,250.636 245.928,252.777 248.089 C 253.697 249.016,255.023 250.084,255.724 250.462 C 257.153 251.232,258.195 252.754,258.468 254.467 C 258.820 256.680,257.231 256.736,252.681 254.672 C 251.061 253.936,249.204 253.161,248.556 252.949 L 247.378 252.563 246.270 249.617 C 244.382 244.597,244.701 243.795,248.160 244.871 M219.264 246.658 C 218.041 246.954,215.059 248.336,214.825 248.714 C 213.913 250.190,220.957 248.761,222.796 247.097 C 223.692 246.286,221.780 246.049,219.264 246.658 M250.001 255.053 C 250.639 255.362,252.048 256.648,253.862 258.576 C 256.430 261.307,256.842 261.650,257.944 261.970 C 260.279 262.649,261.393 264.599,261.400 268.014 C 261.405 271.129,260.218 270.907,255.733 266.954 C 254.115 265.527,252.722 264.708,251.076 264.216 C 249.498 263.744,249.051 263.009,248.224 259.532 C 247.021 254.474,247.309 253.750,250.001 255.053 M230.743 257.151 C 231.368 257.485,231.648 258.442,231.806 260.788 C 231.893 262.092,232.123 263.284,232.414 263.941 C 233.625 266.679,232.913 267.637,229.723 267.560 C 227.369 267.504,225.562 267.825,222.453 268.852 C 219.493 269.829,218.374 269.199,218.017 266.355 C 217.856 265.076,217.605 264.346,216.976 263.326 C 215.279 260.578,216.101 258.951,219.062 259.194 C 221.599 259.402,224.122 258.957,226.487 257.884 C 228.523 256.961,229.934 256.718,230.743 257.151 M252.041 266.443 C 253.031 266.869,254.278 268.235,255.332 270.049 C 256.428 271.937,259.648 275.889,261.001 277.008 C 262.572 278.308,263.065 279.516,263.113 282.182 C 263.195 286.690,261.710 287.292,259.517 283.640 C 257.214 279.807,256.384 279.086,254.261 279.082 C 252.522 279.079,251.507 277.524,251.500 274.854 C 251.498 274.262,251.284 272.929,251.024 271.892 C 249.878 267.327,250.192 265.648,252.041 266.443 M233.198 268.500 C 234.015 268.872,234.295 269.664,234.299 271.608 C 234.300 272.542,234.458 273.889,234.649 274.602 C 235.596 278.130,235.017 278.701,230.244 278.942 C 228.729 279.019,226.733 279.240,225.809 279.435 C 221.196 280.405,219.866 279.700,219.137 275.899 C 218.060 270.281,218.490 269.620,222.910 270.101 C 225.742 270.409,226.301 270.312,229.464 268.957 C 231.221 268.205,232.269 268.077,233.198 268.500 M224.750 281.110 C 226.399 281.404,227.526 281.449,229.817 281.311 C 236.724 280.895,236.571 280.762,236.700 287.254 C 236.806 292.616,236.557 292.826,230.874 292.158 C 225.631 291.542,221.998 292.283,224.671 293.423 C 226.733 294.303,228.081 294.478,231.450 294.303 C 236.983 294.016,236.414 293.266,236.316 300.715 C 236.212 308.583,236.438 308.366,230.013 306.754 C 225.131 305.530,221.828 305.588,224.322 306.855 C 225.550 307.479,227.300 307.791,230.629 307.982 C 234.788 308.220,235.154 308.825,234.043 313.624 C 233.775 314.784,233.479 316.515,233.386 317.470 C 233.080 320.629,233.006 320.638,225.103 318.428 C 224.020 318.126,222.719 317.996,220.665 317.986 C 216.399 317.967,215.816 317.327,216.990 313.948 C 217.532 312.388,217.579 311.993,217.426 310.312 C 217.106 306.804,217.166 306.592,218.712 305.726 C 219.044 305.540,219.041 305.435,218.674 304.667 C 218.118 303.500,218.163 302.325,218.871 299.531 C 219.357 297.614,219.444 296.857,219.315 295.653 C 219.155 294.159,219.156 294.156,220.007 293.352 C 221.020 292.397,221.017 292.417,220.285 291.547 C 219.934 291.130,219.656 290.428,219.570 289.745 C 219.493 289.130,219.255 287.436,219.042 285.980 C 218.304 280.943,219.256 280.131,224.750 281.110 M255.714 282.560 C 256.318 283.134,257.088 284.358,257.903 286.037 C 259.321 288.957,260.841 290.725,262.679 291.589 C 264.378 292.388,264.789 293.385,264.654 296.394 C 264.472 300.468,263.995 300.667,261.022 297.912 C 258.467 295.546,257.597 294.967,256.099 294.636 C 253.702 294.107,253.153 293.230,253.153 289.939 C 253.153 288.773,253.032 286.758,252.885 285.462 C 252.444 281.585,253.524 280.477,255.714 282.560 M256.017 297.879 C 257.246 299.241,257.773 300.248,258.328 302.295 C 258.880 304.328,259.574 305.391,262.273 308.338 C 264.123 310.358,264.291 310.929,264.192 314.872 C 264.054 320.375,262.589 320.383,258.761 314.901 C 257.604 313.244,256.064 311.378,255.230 310.622 L 253.752 309.282 253.589 307.322 C 252.859 298.543,253.692 295.302,256.017 297.879 M255.469 312.493 C 256.051 312.990,258.055 316.750,258.955 319.034 C 259.485 320.380,259.919 320.992,261.313 322.361 C 263.300 324.313,263.936 325.819,263.658 327.914 C 263.256 330.948,262.328 331.025,259.915 328.226 C 257.943 325.939,257.327 325.523,255.646 325.350 C 253.506 325.129,253.503 325.120,253.526 319.420 C 253.554 312.585,253.945 311.191,255.469 312.493 M220.860 319.673 C 221.962 320.135,223.504 320.784,224.287 321.117 C 225.139 321.480,226.604 321.830,227.940 321.990 C 231.700 322.441,232.597 323.183,231.862 325.232 C 231.644 325.842,231.465 326.984,231.466 327.771 C 231.467 328.558,231.317 329.724,231.133 330.364 C 230.950 331.003,230.725 332.104,230.633 332.810 C 230.267 335.643,227.973 336.177,223.942 334.367 C 221.448 333.247,216.403 332.117,215.104 332.387 C 213.511 332.719,220.622 336.121,224.396 336.832 C 225.887 337.113,227.338 337.387,227.621 337.440 C 229.083 337.717,229.188 338.713,228.016 341.182 C 227.327 342.633,227.118 343.413,226.959 345.132 C 226.587 349.164,226.190 349.547,223.254 348.704 C 221.843 348.298,217.851 346.717,215.663 345.698 C 214.944 345.363,213.528 344.882,212.518 344.629 C 209.508 343.877,209.267 343.364,210.607 340.568 C 211.385 338.944,211.432 338.709,211.432 336.412 C 211.432 333.040,211.820 332.351,213.718 332.351 L 214.551 332.351 213.699 331.408 C 212.595 330.186,212.620 329.755,213.937 327.243 L 215.029 325.162 214.886 322.632 C 214.721 319.707,214.784 319.450,215.769 319.004 C 216.872 318.504,218.615 318.733,220.860 319.673 M255.130 329.699 C 256.707 331.318,258.189 334.034,258.703 336.250 C 259.211 338.444,259.521 338.955,261.031 340.096 C 263.400 341.884,263.654 343.957,261.920 347.349 C 260.839 349.463,259.770 348.925,257.405 345.076 C 255.768 342.412,255.235 342.015,253.295 342.015 C 252.267 342.015,251.864 341.898,251.339 341.447 C 250.122 340.401,250.345 332.502,251.665 329.893 C 252.669 327.909,253.348 327.871,255.130 329.699 M252.387 344.008 C 253.655 345.449,254.713 347.523,255.012 349.156 C 255.330 350.895,255.542 351.182,257.784 352.897 C 260.157 354.713,260.442 355.242,260.431 357.808 C 260.408 362.730,259.492 363.232,256.262 360.091 C 254.128 358.017,253.463 357.580,251.313 356.840 C 248.533 355.884,247.818 354.053,249.135 351.267 C 249.948 349.550,250.034 348.897,249.765 346.464 C 249.394 343.099,250.596 341.974,252.387 344.008 M212.161 347.711 C 214.193 349.032,216.592 349.927,220.014 350.642 C 225.660 351.822,225.801 352.037,224.132 356.927 C 223.064 360.054,222.923 360.687,222.968 362.152 C 223.060 365.110,223.045 365.190,222.279 365.881 C 221.193 366.860,220.499 366.732,216.244 364.770 C 213.971 363.721,211.259 362.680,209.534 362.193 C 204.512 360.777,203.963 359.787,206.166 356.113 C 207.288 354.242,207.692 352.712,207.633 350.554 C 207.529 346.784,209.161 345.760,212.161 347.711 M250.037 358.647 C 250.752 359.148,251.169 360.021,251.616 361.952 C 252.252 364.703,253.601 367.157,255.285 368.630 C 257.474 370.545,257.803 371.817,257.013 375.322 C 256.082 379.452,255.509 379.418,252.268 375.034 C 250.705 372.919,250.294 372.670,247.990 372.438 C 245.009 372.137,244.713 371.311,245.829 366.397 C 247.567 358.745,248.286 357.421,250.037 358.647 M204.675 364.312 C 205.886 365.687,208.304 366.481,216.500 368.197 C 221.798 369.307,221.758 369.248,219.824 373.172 C 218.234 376.395,217.970 377.585,218.326 379.908 C 219.074 384.781,215.418 385.645,210.517 381.753 C 207.041 378.992,206.870 378.924,203.064 378.787 C 199.721 378.667,199.189 378.534,198.359 377.618 C 197.609 376.789,197.789 375.788,199.105 373.475 C 200.645 370.768,201.061 369.492,201.061 367.479 C 201.061 363.911,202.902 362.298,204.675 364.312 M245.356 375.663 C 245.712 375.953,246.096 376.947,246.653 379.022 C 247.885 383.604,248.175 384.020,251.310 385.676 C 254.629 387.429,255.026 388.364,254.227 392.542 C 253.841 394.557,253.349 395.463,252.528 395.669 C 251.967 395.810,251.774 395.705,249.405 393.983 C 248.964 393.662,248.276 393.400,247.873 393.399 C 246.404 393.396,245.305 392.896,243.970 391.623 C 242.802 390.509,240.536 389.166,239.813 389.160 C 238.534 389.148,238.394 386.841,239.557 384.942 C 240.943 382.679,241.570 381.260,242.298 378.742 C 243.212 375.576,244.124 374.658,245.356 375.663 M199.610 381.821 C 202.223 383.667,205.096 384.629,210.253 385.385 C 217.360 386.427,217.485 386.602,215.185 392.316 C 214.297 394.520,213.617 396.638,213.399 397.879 C 212.482 403.096,211.332 403.495,204.607 400.929 C 200.588 399.396,197.721 398.647,194.883 398.389 C 190.707 398.009,189.590 395.928,191.602 392.278 C 193.427 388.968,193.734 388.141,193.987 385.857 C 194.434 381.830,194.774 381.379,197.364 381.379 C 198.569 381.379,199.145 381.492,199.610 381.821 M239.198 393.351 C 239.496 393.702,240.179 394.891,240.717 395.993 C 242.070 398.765,243.558 400.300,246.014 401.459 C 248.640 402.697,248.674 402.761,248.674 406.424 C 248.674 412.426,247.048 412.944,242.705 408.324 C 240.471 405.947,238.691 405.064,236.587 405.289 C 233.754 405.593,233.230 404.138,234.867 400.512 C 235.588 398.914,235.710 398.393,235.711 396.906 C 235.714 393.035,237.439 391.277,239.198 393.351 M192.088 401.285 C 194.441 403.021,200.125 404.216,206.718 404.362 C 212.287 404.485,212.675 404.734,211.687 407.551 C 210.649 410.508,210.197 412.811,210.252 414.850 C 210.385 419.736,210.430 419.319,209.710 419.938 C 208.863 420.667,208.022 420.659,206.183 419.905 C 202.190 418.267,195.836 417.489,191.941 418.159 C 186.706 419.061,185.997 418.338,187.593 413.726 C 188.327 411.607,188.331 411.575,188.273 407.271 C 188.192 401.268,189.431 399.324,192.088 401.285 M233.877 408.970 C 234.177 409.107,234.671 409.581,234.975 410.025 C 236.545 412.316,238.441 413.317,242.220 413.848 C 245.845 414.357,246.283 414.888,246.690 419.266 C 247.008 422.689,246.286 423.060,242.748 421.287 C 239.869 419.845,238.179 419.688,235.385 420.605 C 231.866 421.759,231.079 421.223,231.326 417.834 C 231.412 416.647,231.567 414.402,231.670 412.846 C 231.853 410.080,232.102 409.120,232.702 408.878 C 233.162 408.693,233.291 408.703,233.877 408.970 M193.554 423.321 C 198.093 424.776,199.682 424.757,204.674 423.193 C 210.046 421.509,210.122 421.585,210.162 428.639 C 210.187 432.974,210.275 434.224,210.703 436.262 C 211.530 440.209,211.628 440.138,204.327 440.919 C 198.523 441.541,197.725 441.735,193.872 443.462 C 188.691 445.785,187.314 444.377,187.355 436.799 C 187.384 431.469,187.117 429.634,185.980 427.342 C 183.731 422.813,186.833 421.166,193.554 423.321 M234.019 425.211 C 234.366 425.594,235.013 426.344,235.456 426.876 C 236.714 428.385,237.337 428.618,240.475 428.754 C 243.664 428.893,243.810 428.974,244.321 430.897 C 245.522 435.413,244.839 437.226,242.190 436.559 C 238.816 435.710,236.466 435.995,234.683 437.472 C 232.962 438.897,231.549 438.743,230.956 437.067 C 230.612 436.095,230.520 428.157,230.834 426.600 C 231.249 424.548,232.806 423.869,234.019 425.211 M234.394 442.015 C 234.996 442.437,236.082 443.206,236.808 443.724 L 238.128 444.667 241.702 444.667 C 246.411 444.667,247.264 445.187,246.913 447.844 C 246.826 448.497,246.912 449.440,247.134 450.277 C 247.620 452.114,247.596 452.387,246.887 453.053 C 246.029 453.859,243.147 453.864,240.818 453.065 C 239.516 452.618,238.930 452.540,237.754 452.659 C 235.843 452.852,235.442 452.616,233.931 450.408 C 230.310 445.116,230.627 439.378,234.394 442.015 M211.763 442.500 C 212.055 442.713,212.243 443.309,212.379 444.444 C 213.106 450.551,213.154 450.747,214.784 454.282 C 216.394 457.775,216.102 458.550,213.017 458.972 C 209.623 459.436,204.292 461.904,200.384 464.821 C 198.385 466.313,197.205 466.675,196.372 466.054 C 195.721 465.567,195.586 465.169,195.202 462.590 C 194.913 460.648,191.525 453.635,189.964 451.746 C 187.859 449.198,189.713 447.587,195.639 446.814 C 198.208 446.479,201.272 445.635,202.829 444.834 C 206.090 443.157,210.931 441.892,211.763 442.500 M239.918 457.761 C 240.353 458.026,241.520 458.548,242.511 458.921 C 243.502 459.295,244.985 459.880,245.805 460.223 C 246.988 460.718,247.872 460.883,250.079 461.021 C 254.700 461.309,254.836 461.498,255.057 467.973 C 255.276 474.343,255.443 474.720,258.060 474.721 C 261.376 474.723,262.299 476.192,261.391 480.018 C 260.862 482.244,260.915 482.682,261.868 483.913 C 264.477 487.282,264.891 488.776,264.246 492.488 C 263.610 496.149,263.613 496.185,264.643 498.017 C 265.707 499.906,266.074 504.706,265.323 506.908 C 264.746 508.603,261.506 512.905,260.806 512.905 C 259.694 512.905,259.635 512.449,259.634 503.830 C 259.633 496.765,259.585 495.715,259.230 494.961 C 258.515 493.442,255.862 489.024,253.952 486.172 C 252.929 484.643,251.721 482.788,251.267 482.049 C 250.813 481.310,249.780 479.810,248.970 478.715 C 246.111 474.847,244.429 472.469,243.811 471.420 C 241.207 467.001,240.305 465.342,239.626 463.726 C 239.198 462.707,238.566 461.214,238.222 460.408 C 237.010 457.570,237.739 456.433,239.918 457.761 M217.350 463.343 C 218.826 465.733,220.016 466.991,222.630 468.923 C 225.065 470.722,225.949 471.560,226.295 472.395 C 226.479 472.839,227.181 473.450,228.330 474.167 C 229.753 475.053,230.299 475.577,231.217 476.935 C 232.000 478.093,232.931 479.059,234.235 480.069 C 236.603 481.901,238.824 484.093,240.162 485.919 C 240.731 486.695,241.762 487.808,242.453 488.391 C 244.118 489.797,245.012 491.066,245.488 492.702 C 245.727 493.525,246.262 494.516,246.864 495.252 C 248.757 497.566,249.336 498.520,249.944 500.326 C 250.334 501.487,250.933 502.625,251.599 503.474 C 254.308 506.922,255.128 510.972,253.749 514.096 C 252.956 515.891,252.855 516.356,252.717 518.816 C 252.545 521.872,252.113 522.872,250.619 523.678 C 249.724 524.160,249.668 524.450,250.348 525.066 C 252.456 526.973,250.872 531.221,246.947 534.189 C 246.017 534.892,244.037 536.607,242.546 538.001 C 239.425 540.917,238.687 541.367,237.549 541.046 C 235.317 540.416,235.590 536.257,237.983 534.424 C 241.321 531.868,242.118 530.615,243.955 525.040 C 245.659 519.866,245.997 517.264,245.254 515.009 C 242.736 507.361,239.958 501.962,235.983 496.995 C 233.174 493.484,232.829 493.185,225.221 487.678 C 223.536 486.458,221.017 484.488,219.624 483.300 C 218.231 482.112,216.519 480.870,215.821 480.539 C 214.150 479.748,211.693 478.144,209.734 476.566 C 207.260 474.573,205.469 473.788,202.760 473.511 C 197.189 472.941,198.699 470.589,207.556 466.044 C 209.623 464.983,212.163 463.482,213.200 462.709 C 215.728 460.825,215.803 460.837,217.350 463.343 " stroke="none" fill="#fcfcfb" fill-rule="evenodd"></path><path id="path1" d="M194.814 48.096 C 185.875 48.991,171.904 52.710,169.095 54.942 C 168.615 55.323,166.966 56.268,165.430 57.042 C 162.027 58.756,159.174 60.479,156.259 62.581 C 155.048 63.454,153.787 64.285,153.457 64.429 C 153.128 64.573,152.009 65.452,150.972 66.381 C 149.935 67.310,148.114 68.851,146.924 69.805 C 137.394 77.444,136.820 78.106,134.449 84.187 C 132.272 89.771,131.291 94.935,131.291 100.801 L 131.291 103.786 130.223 105.348 C 128.284 108.186,128.581 110.016,130.943 109.772 C 132.460 109.616,132.645 109.776,133.614 112.092 C 133.991 112.993,134.470 114.048,134.679 114.437 C 135.346 115.678,135.188 116.322,134.055 116.986 C 132.523 117.884,130.648 119.858,129.209 122.090 C 128.495 123.196,127.410 124.639,126.798 125.297 C 124.181 128.109,123.939 131.133,126.331 131.133 C 127.260 131.133,127.624 130.792,129.060 128.580 C 130.348 126.596,134.881 121.463,136.257 120.430 C 137.469 119.521,137.820 119.460,138.837 119.979 C 139.901 120.521,140.326 120.547,142.119 120.179 C 143.372 119.921,143.531 119.947,145.736 120.775 C 148.503 121.813,151.387 122.285,156.158 122.479 C 159.215 122.604,159.805 122.692,160.519 123.132 C 160.972 123.413,161.556 123.755,161.815 123.893 C 162.074 124.031,162.879 125.248,163.604 126.597 C 166.971 132.867,168.827 133.597,181.512 133.637 C 185.129 133.648,187.408 133.940,188.198 134.494 C 188.459 134.677,188.994 134.828,189.387 134.830 C 190.321 134.834,190.582 135.032,190.783 135.887 C 190.875 136.276,191.250 137.018,191.616 137.537 C 192.692 139.059,193.244 143.350,192.712 146.054 C 192.432 147.477,193.123 148.142,194.665 147.933 C 195.266 147.852,197.826 147.745,200.354 147.695 C 202.882 147.644,205.320 147.486,205.773 147.343 C 206.226 147.200,207.044 147.083,207.591 147.083 C 210.363 147.083,210.453 142.479,207.768 137.981 C 206.003 135.023,205.733 134.728,202.649 132.391 C 198.870 129.528,195.404 125.544,195.404 124.064 C 195.404 123.475,194.867 122.614,194.315 122.319 C 194.005 122.153,193.416 121.494,193.006 120.856 C 192.167 119.549,190.978 118.682,189.725 118.466 C 189.260 118.385,188.632 118.056,188.329 117.734 C 185.955 115.206,183.436 120.314,185.607 123.256 C 187.160 125.362,183.172 124.627,180.800 122.370 L 179.784 121.404 179.947 119.963 C 180.161 118.072,179.817 117.525,178.096 117.025 C 175.981 116.410,170.765 116.474,168.415 117.144 C 167.378 117.440,165.715 117.762,164.719 117.861 C 163.724 117.960,162.191 118.280,161.313 118.572 C 158.694 119.444,149.973 118.957,147.633 117.808 C 146.970 117.483,146.790 117.218,146.461 116.087 C 146.100 114.844,144.873 114.439,141.471 114.438 L 138.569 114.437 137.907 113.141 C 137.542 112.428,136.686 110.706,136.004 109.315 L 134.764 106.786 135.245 105.662 C 135.816 104.326,136.140 101.799,136.479 96.052 C 137.003 87.178,139.270 82.468,146.472 75.301 C 153.465 68.340,161.055 63.740,172.176 59.720 C 174.515 58.875,178.338 57.464,180.672 56.584 C 189.956 53.086,200.953 51.572,208.379 52.771 C 210.174 53.060,210.473 53.055,211.118 52.722 C 212.545 51.984,222.553 54.042,229.228 56.447 C 239.943 60.308,251.523 68.144,252.921 72.481 C 253.648 74.736,254.767 77.443,256.822 81.923 C 258.267 85.071,258.536 85.847,258.425 86.536 C 258.308 87.256,258.411 87.504,259.221 88.439 C 260.141 89.503,260.636 90.758,261.807 95.001 C 262.841 98.747,261.995 111.020,260.464 114.482 C 260.202 115.074,259.988 115.805,259.988 116.106 C 259.988 117.102,258.851 119.834,258.257 120.267 C 257.943 120.496,257.443 121.293,257.145 122.038 C 253.895 130.186,247.130 137.531,237.894 142.940 C 237.086 143.414,235.940 144.221,235.346 144.735 C 234.753 145.249,234.126 145.669,233.953 145.669 C 232.565 145.669,231.810 147.793,232.786 148.952 C 233.479 149.776,233.607 151.589,233.196 154.764 C 232.821 157.659,233.531 158.783,235.374 158.218 C 236.075 158.002,236.336 158.032,236.963 158.396 C 237.592 158.760,237.976 158.803,239.329 158.658 C 241.242 158.454,241.401 158.297,242.554 155.476 C 243.865 152.271,249.217 141.838,250.549 139.894 C 250.993 139.246,252.626 137.443,254.178 135.887 C 267.995 122.038,272.742 104.714,267.279 88.079 C 260.988 68.918,241.846 54.262,217.201 49.734 C 215.784 49.473,214.429 49.081,214.069 48.827 C 213.120 48.156,199.414 47.636,194.814 48.096 M175.231 120.181 C 175.822 120.309,175.985 120.528,176.388 121.744 C 177.637 125.505,183.010 128.611,186.867 127.802 C 188.427 127.475,188.466 127.504,188.642 129.092 C 188.810 130.607,188.560 130.876,187.264 130.576 C 186.749 130.456,184.950 130.356,183.265 130.353 C 170.372 130.327,169.129 129.902,166.346 124.573 C 164.674 121.371,164.605 121.452,170.065 120.238 C 171.152 119.996,174.221 119.962,175.231 120.181 M223.379 147.784 C 222.184 148.161,222.039 148.429,222.039 150.251 C 222.039 155.140,224.148 156.717,227.730 154.506 C 229.069 153.679,229.216 153.640,230.046 153.889 C 231.949 154.459,232.802 153.910,232.580 152.257 C 232.297 150.149,230.705 148.733,228.619 148.733 C 227.819 148.733,227.141 148.574,226.652 148.272 C 225.753 147.717,224.286 147.498,223.379 147.784 M196.751 148.983 C 192.527 150.012,192.572 155.605,196.810 156.169 C 198.627 156.411,198.630 156.430,197.086 157.877 L 195.639 159.233 195.639 160.826 C 195.639 164.546,196.718 165.284,200.654 164.255 C 202.385 163.802,202.788 163.776,204.413 164.009 C 207.569 164.462,208.453 163.716,208.465 160.590 C 208.475 158.349,208.027 157.810,206.001 157.626 C 202.601 157.318,202.094 155.973,205.314 155.804 C 208.584 155.633,209.498 154.847,208.869 152.747 C 208.464 151.395,208.108 151.217,205.802 151.212 C 203.858 151.208,203.673 151.160,201.531 150.097 C 199.081 148.882,198.103 148.654,196.751 148.983 M222.022 157.751 C 221.390 159.137,222.493 163.671,223.650 164.448 C 224.753 165.189,227.366 165.045,228.655 164.172 C 229.613 163.524,229.866 163.465,231.703 163.465 L 233.707 163.465 233.771 162.640 C 233.870 161.361,233.109 160.355,231.520 159.667 C 230.778 159.345,229.400 158.701,228.457 158.235 C 226.065 157.053,222.464 156.782,222.022 157.751 M203.771 165.974 C 201.967 166.512,200.810 166.700,198.837 166.773 C 195.311 166.904,194.985 167.386,195.740 171.350 C 196.437 175.010,196.903 175.221,202.302 174.313 C 204.344 173.970,206.359 173.722,206.779 173.762 L 207.543 173.836 206.718 174.346 C 205.030 175.391,203.134 175.840,200.413 175.840 C 196.524 175.840,196.214 176.268,197.057 180.486 C 197.913 184.764,198.476 185.166,202.308 184.225 C 203.839 183.849,205.858 183.553,207.478 183.467 C 211.263 183.267,211.873 182.764,211.289 180.323 C 211.117 179.607,210.974 178.089,210.969 176.949 C 210.959 174.418,210.495 173.718,208.825 173.718 L 207.847 173.718 208.579 172.885 C 209.429 171.917,209.491 171.167,208.964 168.210 C 208.395 165.019,207.811 164.768,203.771 165.974 M224.463 166.252 C 222.894 166.825,222.802 167.098,223.398 169.404 C 224.145 172.295,224.544 172.981,225.879 173.668 L 227.009 174.250 226.177 174.816 C 224.897 175.685,224.825 178.513,226.001 181.681 C 226.686 183.526,229.596 184.067,231.989 182.793 C 233.408 182.038,233.492 182.043,235.695 183.051 C 238.636 184.395,239.055 183.917,237.975 180.454 C 237.122 177.718,236.816 177.486,234.151 177.554 L 232.022 177.608 229.855 175.958 C 227.418 174.102,227.410 173.974,229.695 173.463 C 230.882 173.197,230.990 173.218,232.875 174.069 C 236.304 175.617,237.360 175.433,237.360 173.285 C 237.360 171.233,235.981 169.722,233.767 169.348 C 233.258 169.262,232.252 168.738,231.423 168.128 C 228.632 166.074,226.516 165.503,224.463 166.252 M207.887 184.679 C 207.040 184.984,205.470 185.411,204.399 185.628 C 202.577 185.997,202.074 185.995,199.837 185.607 C 197.864 185.264,197.444 186.557,198.239 190.535 C 199.170 195.196,199.836 195.643,203.696 194.199 C 205.857 193.390,208.694 193.207,210.696 193.746 C 212.939 194.350,213.479 193.311,213.106 189.116 C 212.674 184.274,211.587 183.349,207.887 184.679 M228.074 184.906 C 226.192 185.582,226.008 186.635,227.181 190.016 C 228.035 192.478,228.281 192.972,229.073 193.821 C 229.509 194.288,229.620 194.568,229.457 194.790 C 228.261 196.418,228.298 196.133,228.981 198.522 C 229.736 201.165,230.607 203.138,231.102 203.328 C 231.575 203.510,231.568 203.983,231.087 204.383 C 229.632 205.590,232.157 211.471,234.276 211.810 C 235.558 212.015,235.642 212.230,234.663 212.807 C 233.232 213.651,233.322 215.610,234.940 218.857 C 236.376 221.738,236.915 221.989,239.755 221.099 C 241.713 220.485,241.960 220.499,244.040 221.332 C 247.114 222.563,248.387 222.100,248.121 219.850 C 247.774 216.926,246.609 215.772,243.582 215.358 C 241.407 215.061,241.238 214.986,238.446 213.094 C 236.977 212.099,236.919 212.024,237.291 211.614 C 238.716 210.039,240.068 209.956,242.054 211.322 C 243.910 212.599,244.907 212.280,244.898 210.413 C 244.884 207.843,243.704 206.718,241.020 206.716 C 238.818 206.715,237.631 206.433,236.399 205.617 C 235.912 205.295,234.897 204.780,234.143 204.474 C 232.467 203.793,232.424 203.685,233.533 202.960 C 234.997 202.004,236.578 202.026,239.563 203.046 C 243.264 204.311,243.666 203.907,242.282 200.319 C 241.092 197.232,240.713 196.938,237.909 196.926 C 235.432 196.915,235.174 196.834,233.294 195.469 C 231.912 194.466,231.911 194.382,233.281 193.513 C 234.599 192.677,235.463 192.631,237.596 193.282 C 240.984 194.317,241.673 193.706,240.748 190.490 C 239.766 187.078,239.098 186.520,236.404 186.864 C 234.180 187.148,233.745 187.073,232.646 186.218 C 230.825 184.802,229.457 184.409,228.074 184.906 M210.310 194.943 C 208.197 195.799,205.727 196.200,203.465 196.055 C 200.698 195.877,200.078 196.682,201.061 199.175 C 201.341 199.887,201.532 200.927,201.532 201.745 C 201.532 204.545,202.392 204.854,206.045 203.368 C 208.370 202.422,208.608 202.374,211.078 202.345 C 215.000 202.299,215.523 201.916,214.864 199.572 C 214.675 198.900,214.456 197.820,214.378 197.171 C 214.125 195.088,214.048 194.918,213.199 194.563 C 212.186 194.140,212.343 194.119,210.310 194.943 M213.671 203.660 C 213.282 203.745,212.214 204.088,211.298 204.421 C 210.207 204.818,208.660 205.123,206.819 205.305 C 202.217 205.759,201.406 206.473,202.562 209.050 C 203.038 210.109,203.182 210.808,203.182 212.054 C 203.182 213.238,203.312 213.921,203.663 214.575 L 204.143 215.472 203.663 216.249 C 203.033 217.269,203.059 218.111,203.769 219.637 C 204.090 220.325,204.496 221.724,204.672 222.744 C 205.314 226.458,207.559 227.252,211.324 225.097 C 213.491 223.858,216.556 223.076,218.066 223.377 L 218.766 223.518 217.823 224.080 C 215.662 225.369,211.235 226.598,207.459 226.958 C 204.864 227.205,204.408 228.289,205.767 230.980 C 206.151 231.741,206.581 233.091,206.722 233.978 C 207.251 237.301,208.182 237.662,212.100 236.064 C 213.915 235.323,215.253 235.053,218.579 234.755 C 223.019 234.357,223.974 233.268,222.656 230.105 C 222.346 229.363,221.916 227.961,221.698 226.989 C 221.212 224.813,220.880 224.281,219.785 223.920 L 218.930 223.637 219.777 222.939 C 220.852 222.052,220.844 221.613,219.714 219.696 C 218.632 217.860,218.353 217.048,218.047 214.850 C 217.865 213.542,217.693 213.092,217.218 212.681 C 216.750 212.276,216.617 211.938,216.614 211.149 C 216.612 210.591,216.458 209.711,216.271 209.193 C 216.084 208.674,215.926 207.395,215.921 206.350 C 215.907 203.851,215.426 203.275,213.671 203.660 M212.980 213.344 C 213.262 213.800,211.188 214.707,208.676 215.226 C 206.919 215.589,206.220 215.412,206.815 214.755 C 207.765 213.704,212.529 212.614,212.980 213.344 M238.202 223.116 C 237.622 223.696,237.756 224.627,238.798 227.255 C 240.308 231.064,241.149 231.895,243.189 231.589 C 244.632 231.373,246.339 231.814,248.391 232.932 C 251.931 234.862,252.337 233.534,249.656 228.789 C 248.155 226.134,247.902 225.922,245.964 225.693 C 244.340 225.501,243.612 225.176,242.781 224.269 C 241.569 222.947,239.014 222.304,238.202 223.116 M241.830 233.362 C 241.288 233.904,241.319 234.365,242.098 237.318 C 243.069 240.998,243.183 241.104,247.049 241.922 C 249.875 242.520,250.809 242.912,252.766 244.316 C 255.212 246.072,255.571 244.691,253.858 240.118 C 253.048 237.955,252.568 237.539,250.655 237.341 C 249.100 237.180,248.997 237.131,248.205 236.147 C 245.828 233.198,243.159 232.032,241.830 233.362 M219.757 235.839 C 217.164 236.930,215.737 237.276,212.971 237.483 C 209.553 237.740,208.937 238.467,210.177 240.780 C 210.703 241.759,210.839 242.398,210.989 244.594 C 211.199 247.659,211.570 248.619,212.626 248.830 C 213.553 249.016,213.617 249.172,213.187 250.201 C 212.732 251.288,212.989 252.204,214.157 253.666 C 214.617 254.241,215.176 255.361,215.440 256.238 C 216.266 258.979,216.751 259.117,220.709 257.728 C 223.422 256.777,224.121 256.626,226.330 256.514 C 230.177 256.320,230.974 254.918,229.029 251.767 C 228.247 250.500,228.167 250.215,228.167 248.677 C 228.167 247.048,228.137 246.957,227.367 246.275 C 226.591 245.588,226.570 245.523,226.691 244.191 C 226.804 242.944,226.735 242.660,225.959 241.160 C 225.353 239.989,225.103 239.201,225.103 238.462 C 225.103 234.881,223.685 234.185,219.757 235.839 M245.296 244.588 C 244.883 245.002,245.253 246.914,246.270 249.617 L 247.378 252.563 248.556 252.949 C 249.204 253.161,251.061 253.936,252.681 254.672 C 257.231 256.736,258.820 256.680,258.468 254.467 C 258.195 252.754,257.153 251.232,255.724 250.462 C 255.023 250.084,253.697 249.016,252.777 248.089 C 250.012 245.299,246.315 243.569,245.296 244.588 M223.080 246.521 C 223.712 247.544,216.856 249.888,215.303 249.180 C 214.522 248.824,214.648 248.671,216.483 247.740 C 218.777 246.575,222.669 245.856,223.080 246.521 M247.653 254.724 C 247.335 255.042,247.513 256.542,248.224 259.532 C 249.051 263.009,249.498 263.744,251.076 264.216 C 252.722 264.708,254.115 265.527,255.733 266.954 C 260.218 270.907,261.405 271.129,261.400 268.014 C 261.393 264.599,260.279 262.649,257.944 261.970 C 256.842 261.650,256.430 261.307,253.862 258.576 C 250.628 255.138,248.537 253.840,247.653 254.724 M226.487 257.884 C 224.122 258.957,221.599 259.402,219.062 259.194 C 216.101 258.951,215.279 260.578,216.976 263.326 C 217.605 264.346,217.856 265.076,218.017 266.355 C 218.374 269.199,219.493 269.829,222.453 268.852 C 225.562 267.825,227.369 267.504,229.723 267.560 C 232.913 267.637,233.625 266.679,232.414 263.941 C 232.123 263.284,231.893 262.092,231.806 260.788 C 231.523 256.586,230.537 256.047,226.487 257.884 M250.680 266.586 C 250.165 267.154,250.280 268.929,251.024 271.892 C 251.284 272.929,251.498 274.262,251.500 274.854 C 251.507 277.524,252.522 279.079,254.261 279.082 C 256.384 279.086,257.214 279.807,259.517 283.640 C 261.710 287.292,263.195 286.690,263.113 282.182 C 263.065 279.516,262.572 278.308,261.001 277.008 C 259.648 275.889,256.428 271.937,255.332 270.049 C 254.278 268.235,253.031 266.869,252.041 266.443 C 251.097 266.037,251.185 266.028,250.680 266.586 M229.464 268.957 C 226.301 270.312,225.742 270.409,222.910 270.101 C 218.490 269.620,218.060 270.281,219.137 275.899 C 219.866 279.700,221.196 280.405,225.809 279.435 C 226.733 279.240,228.729 279.019,230.244 278.942 C 235.017 278.701,235.596 278.130,234.649 274.602 C 234.458 273.889,234.300 272.542,234.299 271.608 C 234.293 268.206,232.944 267.467,229.464 268.957 M219.918 281.144 C 218.723 281.740,218.556 282.663,219.042 285.980 C 219.255 287.436,219.493 289.130,219.570 289.745 C 219.656 290.428,219.934 291.130,220.285 291.547 C 221.017 292.417,221.020 292.397,220.007 293.352 C 219.156 294.156,219.155 294.159,219.315 295.653 C 219.444 296.857,219.357 297.614,218.871 299.531 C 218.163 302.325,218.118 303.500,218.674 304.667 C 219.041 305.435,219.044 305.540,218.712 305.726 C 217.166 306.592,217.106 306.804,217.426 310.312 C 217.579 311.993,217.532 312.388,216.990 313.948 C 215.816 317.327,216.399 317.967,220.665 317.986 C 222.719 317.996,224.020 318.126,225.103 318.428 C 233.006 320.638,233.080 320.629,233.386 317.470 C 233.479 316.515,233.775 314.784,234.043 313.624 C 235.154 308.825,234.788 308.220,230.629 307.982 C 227.300 307.791,225.550 307.479,224.322 306.855 C 221.828 305.588,225.131 305.530,230.013 306.754 C 236.438 308.366,236.212 308.583,236.316 300.715 C 236.414 293.266,236.983 294.016,231.450 294.303 C 228.081 294.478,226.733 294.303,224.671 293.423 C 221.998 292.283,225.631 291.542,230.874 292.158 C 236.557 292.826,236.806 292.616,236.700 287.254 C 236.571 280.762,236.724 280.895,229.817 281.311 C 227.526 281.449,226.399 281.404,224.750 281.110 C 222.029 280.625,220.940 280.633,219.918 281.144 M252.913 282.390 C 252.680 282.953,252.674 283.609,252.885 285.462 C 253.032 286.758,253.153 288.773,253.153 289.939 C 253.153 293.230,253.702 294.107,256.099 294.636 C 257.597 294.967,258.467 295.546,261.022 297.912 C 263.995 300.667,264.472 300.468,264.654 296.394 C 264.789 293.385,264.378 292.388,262.679 291.589 C 260.841 290.725,259.321 288.957,257.903 286.037 C 255.955 282.023,253.737 280.401,252.913 282.390 M253.755 297.519 C 253.354 298.092,253.264 303.409,253.589 307.322 L 253.752 309.282 255.230 310.622 C 256.064 311.378,257.604 313.244,258.761 314.901 C 262.589 320.383,264.054 320.375,264.192 314.872 C 264.291 310.929,264.123 310.358,262.273 308.338 C 259.574 305.391,258.880 304.328,258.328 302.295 C 257.285 298.449,254.870 295.927,253.755 297.519 M254.239 312.441 C 253.670 313.010,253.547 314.214,253.526 319.420 C 253.503 325.120,253.506 325.129,255.646 325.350 C 257.327 325.523,257.943 325.939,259.915 328.226 C 262.328 331.025,263.256 330.948,263.658 327.914 C 263.936 325.819,263.300 324.313,261.313 322.361 C 259.919 320.992,259.485 320.380,258.955 319.034 C 257.007 314.092,255.165 311.516,254.239 312.441 M215.769 319.004 C 214.784 319.450,214.721 319.707,214.886 322.632 L 215.029 325.162 213.937 327.243 C 212.620 329.755,212.595 330.186,213.699 331.408 L 214.551 332.351 213.718 332.351 C 211.820 332.351,211.432 333.040,211.432 336.412 C 211.432 338.709,211.385 338.944,210.607 340.568 C 209.267 343.364,209.508 343.877,212.518 344.629 C 213.528 344.882,214.944 345.363,215.663 345.698 C 217.851 346.717,221.843 348.298,223.254 348.704 C 226.190 349.547,226.587 349.164,226.959 345.132 C 227.118 343.413,227.327 342.633,228.016 341.182 C 229.188 338.713,229.083 337.717,227.621 337.440 C 227.338 337.387,225.887 337.113,224.396 336.832 C 220.622 336.121,213.511 332.719,215.104 332.387 C 216.403 332.117,221.448 333.247,223.942 334.367 C 227.973 336.177,230.267 335.643,230.633 332.810 C 230.725 332.104,230.950 331.003,231.133 330.364 C 231.317 329.724,231.467 328.558,231.466 327.771 C 231.465 326.984,231.644 325.842,231.862 325.232 C 232.597 323.183,231.700 322.441,227.940 321.990 C 226.604 321.830,225.139 321.480,224.287 321.117 C 219.712 319.172,218.747 318.827,217.678 318.753 C 216.997 318.706,216.192 318.812,215.769 319.004 M252.393 328.757 C 251.117 330.212,250.495 333.300,250.600 337.662 C 250.694 341.565,250.973 342.015,253.295 342.015 C 255.235 342.015,255.768 342.412,257.405 345.076 C 258.713 347.206,259.930 348.615,260.458 348.615 C 261.323 348.615,262.152 347.370,262.732 345.197 C 263.403 342.687,263.046 341.617,261.031 340.096 C 259.521 338.955,259.211 338.444,258.703 336.250 C 257.686 331.869,253.756 327.201,252.393 328.757 M249.972 343.812 C 249.635 344.524,249.600 344.967,249.765 346.464 C 250.034 348.897,249.948 349.550,249.135 351.267 C 247.818 354.053,248.533 355.884,251.313 356.840 C 253.463 357.580,254.128 358.017,256.262 360.091 C 259.492 363.232,260.408 362.730,260.431 357.808 C 260.442 355.242,260.157 354.713,257.784 352.897 C 255.542 351.182,255.330 350.895,255.012 349.156 C 254.285 345.190,250.981 341.686,249.972 343.812 M208.683 347.186 C 207.739 347.762,207.571 348.300,207.633 350.554 C 207.692 352.712,207.288 354.242,206.166 356.113 C 203.963 359.787,204.512 360.777,209.534 362.193 C 211.259 362.680,213.971 363.721,216.244 364.770 C 220.499 366.732,221.193 366.860,222.279 365.881 C 223.045 365.190,223.060 365.110,222.968 362.152 C 222.923 360.687,223.064 360.054,224.132 356.927 C 225.801 352.037,225.660 351.822,220.014 350.642 C 216.592 349.927,214.193 349.032,212.161 347.711 C 210.484 346.620,209.784 346.515,208.683 347.186 M248.214 358.695 C 247.422 359.335,245.392 367.212,245.303 369.982 C 245.240 371.957,245.491 372.186,247.990 372.438 C 250.294 372.670,250.705 372.919,252.268 375.034 C 255.509 379.418,256.082 379.452,257.013 375.322 C 257.803 371.817,257.474 370.545,255.285 368.630 C 253.601 367.157,252.252 364.703,251.616 361.952 C 250.879 358.767,249.617 357.558,248.214 358.695 M202.060 363.995 C 201.315 364.790,201.061 365.678,201.061 367.479 C 201.061 369.492,200.645 370.768,199.105 373.475 C 197.789 375.788,197.609 376.789,198.359 377.618 C 199.189 378.534,199.721 378.667,203.064 378.787 C 206.870 378.924,207.041 378.992,210.517 381.753 C 215.418 385.645,219.074 384.781,218.326 379.908 C 217.970 377.585,218.234 376.395,219.824 373.172 C 221.758 369.248,221.798 369.307,216.500 368.197 C 208.304 366.481,205.886 365.687,204.675 364.312 C 203.782 363.298,202.822 363.182,202.060 363.995 M243.611 375.781 C 243.165 376.168,242.810 376.968,242.298 378.742 C 241.570 381.260,240.943 382.679,239.557 384.942 C 238.394 386.841,238.534 389.148,239.813 389.160 C 240.536 389.166,242.802 390.509,243.970 391.623 C 245.305 392.896,246.404 393.396,247.873 393.399 C 248.276 393.400,248.964 393.662,249.405 393.983 C 251.774 395.705,251.967 395.810,252.528 395.669 C 253.349 395.463,253.841 394.557,254.227 392.542 C 255.026 388.364,254.629 387.429,251.310 385.676 C 248.175 384.020,247.885 383.604,246.653 379.022 C 245.653 375.298,244.986 374.587,243.611 375.781 M195.238 381.733 C 194.574 382.198,194.289 383.140,193.987 385.857 C 193.734 388.141,193.427 388.968,191.602 392.278 C 189.590 395.928,190.707 398.009,194.883 398.389 C 197.721 398.647,200.588 399.396,204.607 400.929 C 211.332 403.495,212.482 403.096,213.399 397.879 C 213.617 396.638,214.297 394.520,215.185 392.316 C 217.485 386.602,217.360 386.427,210.253 385.385 C 205.096 384.629,202.223 383.667,199.610 381.821 C 198.807 381.254,196.004 381.197,195.238 381.733 M236.828 392.926 C 236.034 393.551,235.713 394.694,235.711 396.906 C 235.710 398.393,235.588 398.914,234.867 400.512 C 233.230 404.138,233.754 405.593,236.587 405.289 C 238.691 405.064,240.471 405.947,242.705 408.324 C 247.048 412.944,248.674 412.426,248.674 406.424 C 248.674 402.761,248.640 402.697,246.014 401.459 C 243.558 400.300,242.070 398.765,240.717 395.993 C 239.115 392.710,238.110 391.917,236.828 392.926 M189.706 400.951 C 188.430 401.696,188.211 402.663,188.273 407.271 C 188.331 411.575,188.327 411.607,187.593 413.726 C 185.997 418.338,186.706 419.061,191.941 418.159 C 195.836 417.489,202.190 418.267,206.183 419.905 C 208.022 420.659,208.863 420.667,209.710 419.938 C 210.430 419.319,210.385 419.736,210.252 414.850 C 210.197 412.811,210.649 410.508,211.687 407.551 C 212.675 404.734,212.287 404.485,206.718 404.362 C 200.125 404.216,194.441 403.021,192.088 401.285 C 191.273 400.683,190.380 400.558,189.706 400.951 M232.702 408.878 C 232.102 409.120,231.853 410.080,231.670 412.846 C 231.567 414.402,231.412 416.647,231.326 417.834 C 231.079 421.223,231.866 421.759,235.385 420.605 C 238.179 419.688,239.869 419.845,242.748 421.287 C 246.286 423.060,247.008 422.689,246.690 419.266 C 246.283 414.888,245.845 414.357,242.220 413.848 C 238.441 413.317,236.545 412.316,234.975 410.025 C 234.265 408.988,233.450 408.577,232.702 408.878 M186.421 422.846 C 184.860 423.702,184.746 424.858,185.980 427.342 C 187.117 429.634,187.384 431.469,187.355 436.799 C 187.314 444.377,188.691 445.785,193.872 443.462 C 197.725 441.735,198.523 441.541,204.327 440.919 C 211.628 440.138,211.530 440.209,210.703 436.262 C 210.275 434.224,210.187 432.974,210.162 428.639 C 210.122 421.585,210.046 421.509,204.674 423.193 C 199.682 424.757,198.093 424.776,193.554 423.321 C 190.546 422.356,187.663 422.164,186.421 422.846 M231.491 425.127 C 230.119 426.870,230.294 437.431,231.706 438.187 C 232.599 438.664,233.506 438.447,234.683 437.472 C 236.466 435.995,238.816 435.710,242.190 436.559 C 244.839 437.226,245.522 435.413,244.321 430.897 C 243.810 428.974,243.664 428.893,240.475 428.754 C 237.337 428.618,236.714 428.385,235.456 426.876 C 233.690 424.757,233.404 424.514,232.681 424.514 C 232.199 424.514,231.819 424.710,231.491 425.127 M231.810 441.647 C 230.705 442.752,231.807 447.303,233.931 450.408 C 235.442 452.616,235.843 452.852,237.754 452.659 C 238.930 452.540,239.516 452.618,240.818 453.065 C 243.147 453.864,246.029 453.859,246.887 453.053 C 247.596 452.387,247.620 452.114,247.134 450.277 C 246.912 449.440,246.826 448.497,246.913 447.844 C 247.264 445.187,246.411 444.667,241.702 444.667 L 238.128 444.667 236.808 443.724 C 233.749 441.540,233.273 441.249,232.754 441.249 C 232.454 441.249,232.029 441.428,231.810 441.647 M206.600 443.352 C 204.915 443.967,203.217 444.634,202.829 444.834 C 201.272 445.635,198.208 446.479,195.639 446.814 C 189.713 447.587,187.859 449.198,189.964 451.746 C 191.525 453.635,194.913 460.648,195.202 462.590 C 195.586 465.169,195.721 465.567,196.372 466.054 C 197.205 466.675,198.385 466.313,200.384 464.821 C 204.292 461.904,209.623 459.436,213.017 458.972 C 216.102 458.550,216.394 457.775,214.784 454.282 C 213.154 450.747,213.106 450.551,212.379 444.444 C 212.059 441.763,211.328 441.625,206.600 443.352 M237.753 457.435 C 237.424 457.763,237.619 458.995,238.222 460.408 C 238.566 461.214,239.198 462.707,239.626 463.726 C 240.305 465.342,241.207 467.001,243.811 471.420 C 244.429 472.469,246.111 474.847,248.970 478.715 C 249.780 479.810,250.813 481.310,251.267 482.049 C 251.721 482.788,252.929 484.643,253.952 486.172 C 255.862 489.024,258.515 493.442,259.230 494.961 C 259.585 495.715,259.633 496.765,259.634 503.830 C 259.635 512.449,259.694 512.905,260.806 512.905 C 261.506 512.905,264.746 508.603,265.323 506.908 C 266.074 504.706,265.707 499.906,264.643 498.017 C 263.613 496.185,263.610 496.149,264.246 492.488 C 264.891 488.776,264.477 487.282,261.868 483.913 C 260.915 482.682,260.862 482.244,261.391 480.018 C 262.299 476.192,261.376 474.723,258.060 474.721 C 255.443 474.720,255.276 474.343,255.057 467.973 C 254.836 461.498,254.700 461.309,250.079 461.021 C 247.872 460.883,246.988 460.718,245.805 460.223 C 244.985 459.880,243.502 459.295,242.511 458.921 C 241.520 458.548,240.353 458.026,239.918 457.761 C 239.142 457.288,238.062 457.125,237.753 457.435 M213.200 462.709 C 212.163 463.482,209.623 464.983,207.556 466.044 C 198.699 470.589,197.189 472.941,202.760 473.511 C 205.469 473.788,207.260 474.573,209.734 476.566 C 211.693 478.144,214.150 479.748,215.821 480.539 C 216.519 480.870,218.231 482.112,219.624 483.300 C 221.017 484.488,223.536 486.458,225.221 487.678 C 232.829 493.185,233.174 493.484,235.983 496.995 C 239.958 501.962,242.736 507.361,245.254 515.009 C 245.997 517.264,245.659 519.866,243.955 525.040 C 242.118 530.615,241.321 531.868,237.983 534.424 C 235.590 536.257,235.317 540.416,237.549 541.046 C 238.687 541.367,239.425 540.917,242.546 538.001 C 244.037 536.607,246.017 534.892,246.947 534.189 C 250.872 531.221,252.456 526.973,250.348 525.066 C 249.668 524.450,249.724 524.160,250.619 523.678 C 252.113 522.872,252.545 521.872,252.717 518.816 C 252.855 516.356,252.956 515.891,253.749 514.096 C 255.128 510.972,254.308 506.922,251.599 503.474 C 250.933 502.625,250.334 501.487,249.944 500.326 C 249.336 498.520,248.757 497.566,246.864 495.252 C 246.262 494.516,245.727 493.525,245.488 492.702 C 245.012 491.066,244.118 489.797,242.453 488.391 C 241.762 487.808,240.731 486.695,240.162 485.919 C 238.824 484.093,236.603 481.901,234.235 480.069 C 232.931 479.059,232.000 478.093,231.217 476.935 C 230.299 475.577,229.753 475.053,228.330 474.167 C 227.181 473.450,226.479 472.839,226.295 472.395 C 225.949 471.560,225.065 470.722,222.630 468.923 C 220.016 466.991,218.826 465.733,217.350 463.343 C 215.803 460.837,215.728 460.825,213.200 462.709 " stroke="none" fill="#e4dcb4" fill-rule="evenodd"></path></g></svg>