<svg id="svg" version="1.1" xmlns="http://www.w3.org/2000/svg" xmlns:xlink="http://www.w3.org/1999/xlink" width="400" height="565.6565656565656" viewBox="0, 0, 400,565.6565656565656"><g id="svgg"><path id="path0" d="M0.000 282.852 L 0.000 565.704 200.000 565.704 L 400.000 565.704 400.000 282.852 L 400.000 0.000 200.000 0.000 L 0.000 0.000 0.000 282.852 M229.464 104.962 C 231.112 105.496,231.840 106.079,231.610 106.680 C 231.464 107.058,231.421 107.051,231.097 106.589 C 230.622 105.911,229.244 105.282,228.532 105.418 C 228.165 105.488,227.907 105.404,227.824 105.185 C 227.751 104.996,227.533 104.903,227.338 104.978 C 226.843 105.168,225.553 104.880,225.716 104.617 C 225.927 104.276,227.913 104.458,229.464 104.962 M224.864 104.950 C 224.856 105.582,224.419 105.986,224.164 105.598 C 223.794 105.034,223.887 104.655,224.396 104.655 C 224.655 104.655,224.866 104.788,224.864 104.950 M221.803 105.677 C 221.803 105.835,221.511 106.231,221.155 106.557 C 220.798 106.883,220.394 107.350,220.256 107.595 C 220.083 107.901,219.870 107.988,219.571 107.873 C 219.151 107.711,219.151 107.691,219.586 107.250 C 219.833 106.999,220.352 106.428,220.738 105.981 C 221.419 105.193,221.803 105.083,221.803 105.677 M233.236 106.778 C 233.472 107.038,233.595 107.320,233.510 107.405 C 233.338 107.577,232.410 106.817,232.410 106.504 C 232.410 106.160,232.792 106.287,233.236 106.778 M228.167 108.191 C 228.167 108.450,228.073 108.662,227.957 108.662 C 227.692 108.662,227.445 108.049,227.634 107.860 C 227.917 107.577,228.167 107.731,228.167 108.191 M220.806 108.382 C 220.858 108.536,220.732 108.662,220.526 108.662 C 220.321 108.662,220.153 108.494,220.153 108.289 C 220.153 107.873,220.661 107.945,220.806 108.382 M218.353 108.544 C 218.278 108.739,218.122 108.898,218.007 108.898 C 217.891 108.898,217.796 108.739,217.796 108.544 C 217.796 108.350,217.952 108.191,218.142 108.191 C 218.353 108.191,218.435 108.329,218.353 108.544 M234.296 108.751 C 234.296 108.930,234.146 109.200,233.963 109.352 C 233.515 109.724,233.209 109.238,233.597 108.770 C 233.957 108.337,234.296 108.328,234.296 108.751 M235.786 110.627 C 235.742 112.823,235.982 113.205,236.550 111.844 C 236.869 111.082,236.972 111.019,237.913 111.019 C 239.187 111.019,239.314 111.147,238.877 111.992 C 238.445 112.826,238.067 112.867,238.067 112.080 C 238.067 110.778,236.831 111.685,236.784 113.022 C 236.749 114.047,236.468 114.323,236.047 113.747 C 235.355 112.801,234.942 116.008,235.617 117.081 C 236.227 118.050,235.988 118.498,235.357 117.569 C 235.017 117.069,234.767 116.366,234.767 115.909 C 234.767 114.445,234.201 114.053,233.589 115.091 C 233.047 116.009,232.713 116.184,232.511 115.656 C 232.327 115.176,232.825 114.084,233.229 114.084 C 233.427 114.084,233.589 113.927,233.589 113.735 C 233.589 113.543,233.847 113.321,234.162 113.242 C 234.524 113.151,234.829 112.831,234.987 112.377 C 235.369 111.281,235.313 110.964,234.767 111.137 C 234.224 111.310,234.140 110.971,234.626 110.567 C 234.987 110.268,235.348 109.205,235.261 108.696 C 235.231 108.520,235.346 108.424,235.517 108.481 C 235.747 108.558,235.817 109.118,235.786 110.627 M221.995 109.882 C 221.890 110.946,221.372 111.024,221.401 109.971 C 221.417 109.432,221.540 109.134,221.747 109.134 C 221.967 109.134,222.045 109.371,221.995 109.882 M217.545 110.159 C 217.272 110.401,215.675 110.547,215.675 110.330 C 215.675 110.007,217.150 109.619,217.427 109.870 C 217.548 109.979,217.601 110.109,217.545 110.159 M215.203 110.739 C 215.203 111.083,214.538 111.847,214.378 111.687 C 214.180 111.489,214.673 110.548,214.976 110.548 C 215.101 110.548,215.203 110.634,215.203 110.739 M218.621 111.019 C 218.703 111.279,218.976 111.491,219.226 111.491 C 219.939 111.491,219.760 111.888,218.977 112.044 C 218.027 112.234,217.560 112.018,217.560 111.387 C 217.560 110.462,218.357 110.186,218.621 111.019 M223.112 111.511 C 223.199 111.652,223.148 111.890,222.999 112.040 C 222.703 112.335,222.195 111.810,222.422 111.443 C 222.587 111.177,222.926 111.210,223.112 111.511 M240.858 112.339 C 242.405 113.423,243.669 115.027,242.977 115.027 C 242.825 115.027,242.513 115.197,242.283 115.404 C 241.615 116.009,241.264 115.692,241.820 114.985 L 242.307 114.366 241.625 113.636 C 241.200 113.181,240.711 112.905,240.330 112.905 C 239.753 112.905,239.509 112.484,239.874 112.119 C 240.106 111.887,240.262 111.922,240.858 112.339 M214.025 112.773 C 214.025 112.960,213.919 113.179,213.789 113.259 C 213.432 113.479,213.507 114.459,213.907 114.791 C 214.101 114.952,214.260 115.433,214.260 115.860 C 214.260 116.737,215.375 118.275,216.474 118.916 C 216.837 119.127,216.843 119.199,216.525 119.623 C 216.179 120.085,216.159 120.080,215.465 119.328 C 215.077 118.907,214.593 118.562,214.392 118.562 C 214.190 118.562,214.025 118.440,214.025 118.290 C 214.025 118.140,213.760 117.670,213.435 117.245 C 212.724 116.311,212.687 115.972,213.318 116.137 C 213.812 116.266,213.944 115.986,213.569 115.604 C 213.339 115.371,213.203 114.195,213.275 113.082 C 213.319 112.415,214.025 112.124,214.025 112.773 M219.650 113.508 C 219.698 113.753,219.890 114.066,220.077 114.203 C 220.343 114.398,220.363 114.593,220.168 115.107 C 219.903 115.802,219.446 115.761,219.446 115.041 C 219.446 114.806,219.289 114.483,219.098 114.324 C 218.809 114.084,218.776 113.759,218.957 112.944 C 219.016 112.681,219.579 113.139,219.650 113.508 M244.307 116.380 C 244.397 116.867,244.492 118.617,244.518 120.268 C 244.550 122.250,244.663 123.367,244.852 123.556 C 245.010 123.713,245.138 124.027,245.138 124.252 C 245.138 124.478,245.245 124.728,245.374 124.808 C 245.666 124.989,245.688 125.869,245.401 125.869 C 245.286 125.869,245.012 125.490,244.792 125.026 C 244.400 124.201,244.381 124.191,243.919 124.610 C 243.471 125.015,243.430 125.016,243.147 124.629 C 242.982 124.403,242.726 124.219,242.579 124.219 C 241.956 124.219,242.550 123.307,243.507 122.795 C 244.148 122.452,244.068 122.098,243.350 122.098 L 242.739 122.098 243.350 121.373 C 244.022 120.573,244.099 120.210,243.684 119.794 C 243.472 119.583,243.514 119.319,243.860 118.674 L 244.313 117.830 243.724 117.384 C 243.253 117.027,243.194 116.879,243.430 116.642 C 243.592 116.480,243.724 116.096,243.724 115.790 C 243.724 114.963,244.119 115.362,244.307 116.380 M246.405 116.782 C 246.621 117.111,246.688 117.418,246.562 117.496 C 246.440 117.571,246.226 117.417,246.085 117.155 C 245.944 116.892,245.674 116.676,245.484 116.676 C 245.294 116.676,245.138 116.570,245.138 116.441 C 245.138 115.975,246.035 116.217,246.405 116.782 M232.619 116.655 C 232.874 116.816,232.891 117.017,232.697 117.575 C 232.505 118.123,232.524 118.388,232.775 118.720 C 233.158 119.225,233.221 119.976,232.882 119.976 C 232.752 119.976,232.646 119.830,232.646 119.652 C 232.646 119.168,231.946 118.680,231.253 118.680 C 230.434 118.680,230.379 117.775,231.191 117.660 C 231.525 117.612,231.693 117.462,231.622 117.276 C 231.401 116.701,232.052 116.296,232.619 116.655 M247.613 118.091 C 247.694 118.220,247.541 118.326,247.274 118.326 C 247.007 118.326,246.788 118.220,246.788 118.091 C 246.788 117.961,246.941 117.855,247.128 117.855 C 247.315 117.855,247.533 117.961,247.613 118.091 M230.004 119.305 C 230.041 119.500,229.945 119.970,229.790 120.349 C 229.546 120.942,229.494 120.972,229.413 120.566 C 229.193 119.470,229.142 119.430,228.498 119.852 C 227.680 120.388,227.543 120.164,228.171 119.315 C 228.729 118.560,229.859 118.554,230.004 119.305 M248.203 118.798 C 248.203 118.928,248.044 119.034,247.849 119.034 C 247.655 119.034,247.496 118.928,247.496 118.798 C 247.496 118.668,247.655 118.562,247.849 118.562 C 248.044 118.562,248.203 118.668,248.203 118.798 M249.146 120.120 C 249.146 120.368,249.017 120.449,248.773 120.355 C 248.568 120.277,248.302 120.212,248.183 120.212 C 248.064 120.212,247.967 120.106,247.967 119.976 C 247.967 119.847,248.232 119.741,248.556 119.741 C 248.940 119.741,249.146 119.873,249.146 120.120 M249.515 120.945 C 249.694 121.235,247.600 123.459,247.367 123.227 C 247.287 123.147,247.414 122.789,247.649 122.431 C 247.959 121.957,247.996 121.754,247.785 121.684 C 247.263 121.510,247.481 121.173,248.262 120.947 C 249.302 120.647,249.331 120.647,249.515 120.945 M247.024 122.084 C 247.024 122.362,246.564 122.660,246.396 122.491 C 246.227 122.322,246.524 121.862,246.802 121.862 C 246.924 121.862,247.024 121.962,247.024 122.084 M250.057 122.650 C 250.202 122.824,250.251 123.035,250.166 123.120 C 250.082 123.204,250.215 123.497,250.463 123.771 C 251.383 124.788,250.675 127.769,249.346 128.481 C 249.090 128.618,248.926 128.855,248.981 129.008 C 249.035 129.162,248.898 129.658,248.675 130.112 C 248.452 130.566,248.200 131.227,248.115 131.581 C 247.918 132.399,246.625 133.166,246.405 132.595 C 246.181 132.010,246.498 131.423,246.872 131.733 C 247.217 132.020,247.496 131.857,247.496 131.369 C 247.496 131.196,247.336 131.055,247.142 131.055 C 246.899 131.055,246.791 130.816,246.796 130.289 C 246.803 129.564,246.822 129.547,247.150 129.980 C 247.340 130.232,247.496 130.545,247.496 130.676 C 247.496 131.218,247.920 130.411,248.065 129.590 C 248.218 128.729,248.202 128.705,247.047 128.120 C 245.704 127.439,245.505 127.527,244.669 129.165 C 244.420 129.654,244.049 130.118,243.844 130.196 C 243.544 130.312,243.486 130.668,243.540 132.052 C 243.614 133.951,243.207 134.646,243.017 132.945 C 242.878 131.699,241.799 130.999,241.324 131.847 C 240.984 132.456,239.953 131.485,239.953 130.556 C 239.953 129.553,240.427 129.463,241.149 130.329 C 241.704 130.994,241.857 131.061,242.286 130.832 C 242.833 130.539,242.922 130.111,242.519 129.708 C 242.059 129.248,242.497 128.921,243.166 129.226 C 243.684 129.462,243.805 129.437,244.023 129.048 C 244.162 128.800,244.529 128.342,244.839 128.033 C 245.354 127.518,245.370 127.434,245.035 127.063 C 244.356 126.313,244.636 125.790,245.364 126.449 C 246.329 127.323,248.445 128.239,248.915 127.988 C 249.543 127.652,250.139 126.704,250.053 126.179 C 250.014 125.944,250.069 125.613,250.175 125.443 C 250.606 124.757,250.130 124.016,249.204 123.930 L 248.321 123.848 249.028 123.546 C 249.651 123.279,249.686 123.216,249.322 123.012 C 249.095 122.885,248.910 122.681,248.910 122.558 C 248.910 122.220,249.758 122.289,250.057 122.650 M241.603 124.573 C 241.603 124.767,241.497 124.926,241.367 124.926 C 241.237 124.926,241.131 124.767,241.131 124.573 C 241.131 124.378,241.237 124.219,241.367 124.219 C 241.497 124.219,241.603 124.378,241.603 124.573 M248.910 124.926 C 248.910 125.056,248.585 125.162,248.189 125.162 C 247.768 125.162,247.528 125.064,247.613 124.926 C 247.694 124.797,248.018 124.691,248.334 124.691 C 248.651 124.691,248.910 124.797,248.910 124.926 M245.991 130.244 C 245.919 130.431,245.751 130.583,245.617 130.583 C 245.346 130.583,245.282 129.575,245.538 129.320 C 245.774 129.084,246.145 129.842,245.991 130.244 M245.745 132.133 C 245.666 132.447,245.451 132.705,245.269 132.705 C 245.055 132.705,244.832 133.189,244.645 134.060 C 244.485 134.806,244.253 135.547,244.130 135.707 C 243.807 136.130,243.444 135.822,243.700 135.342 C 243.817 135.123,243.989 134.328,244.083 133.575 C 244.210 132.558,244.336 132.237,244.576 132.329 C 244.782 132.408,244.953 132.223,245.051 131.813 C 245.278 130.861,245.415 130.715,245.664 131.159 C 245.787 131.380,245.824 131.818,245.745 132.133 M222.982 132.324 C 222.982 132.862,224.129 133.495,224.519 133.172 C 224.901 132.855,225.339 133.054,225.339 133.544 C 225.339 133.783,225.618 133.883,226.282 133.883 C 227.223 133.883,227.540 134.183,226.871 134.440 C 226.361 134.635,226.436 134.986,227.020 135.138 C 227.399 135.237,227.490 135.395,227.389 135.780 C 227.239 136.354,228.224 137.399,228.928 137.412 C 229.254 137.418,229.306 137.280,229.193 136.712 C 229.018 135.840,229.404 135.780,229.786 136.620 C 230.004 137.098,230.183 137.204,230.590 137.094 C 230.878 137.017,231.352 136.953,231.644 136.951 C 232.047 136.948,232.174 136.811,232.174 136.378 C 232.174 135.656,232.399 135.062,232.671 135.062 C 232.787 135.062,232.882 135.371,232.882 135.750 C 232.882 136.128,232.946 136.605,233.025 136.810 C 233.207 137.285,234.060 137.300,234.060 136.830 C 234.060 136.319,234.455 136.395,234.596 136.932 C 234.685 137.271,234.850 137.353,235.242 137.251 C 235.594 137.159,235.842 137.242,235.987 137.502 C 236.284 138.031,237.141 137.997,237.284 137.449 C 237.368 137.128,237.731 136.951,238.617 136.801 C 239.609 136.632,239.849 136.499,239.908 136.082 C 239.948 135.800,240.249 135.393,240.577 135.179 C 241.046 134.871,241.141 134.662,241.024 134.195 C 240.915 133.758,240.956 133.639,241.180 133.742 C 241.348 133.820,241.676 133.950,241.910 134.032 C 242.232 134.145,242.318 134.382,242.263 135.015 C 242.191 135.863,241.603 136.400,241.603 135.618 C 241.603 135.226,241.565 135.230,241.123 135.673 C 240.745 136.050,240.689 136.276,240.858 136.727 C 241.013 137.142,240.950 137.614,240.631 138.429 C 240.388 139.050,240.189 139.813,240.189 140.124 C 240.189 140.819,239.770 141.130,239.563 140.590 C 239.437 140.262,239.805 138.795,240.348 137.460 C 240.440 137.234,240.288 137.168,239.802 137.224 C 239.173 137.296,239.127 137.373,239.117 138.362 C 239.105 139.559,238.848 140.483,238.527 140.483 C 238.408 140.483,238.376 140.016,238.455 139.436 C 238.642 138.079,238.440 137.483,237.936 137.901 C 237.689 138.106,237.621 138.414,237.722 138.870 C 237.934 139.837,237.173 142.025,236.765 141.617 C 236.693 141.545,236.787 141.044,236.973 140.504 C 237.357 139.390,237.235 138.541,236.707 138.645 C 236.284 138.729,235.726 140.456,235.871 141.233 C 235.927 141.534,235.811 141.992,235.613 142.251 C 235.152 142.856,235.065 140.650,235.512 139.669 C 235.967 138.670,235.492 137.978,234.319 137.932 C 233.788 137.911,233.352 137.920,233.351 137.951 C 233.272 140.496,232.395 143.783,231.795 143.783 C 231.436 143.783,231.350 143.412,231.666 143.217 C 231.841 143.109,232.371 141.288,232.747 139.504 C 233.101 137.826,232.035 136.854,230.944 137.861 C 230.578 138.199,230.427 141.498,230.782 141.381 C 230.965 141.321,231.147 140.935,231.188 140.524 C 231.275 139.639,231.635 139.540,231.837 140.347 C 231.934 140.733,231.783 141.254,231.370 141.958 C 231.035 142.531,230.760 143.176,230.760 143.391 C 230.760 143.984,230.097 143.861,230.011 143.253 C 229.945 142.789,229.837 142.865,229.146 143.859 C 228.360 144.991,228.288 145.546,229.005 144.952 C 229.320 144.690,229.417 144.694,229.595 144.977 C 230.066 145.724,225.826 146.194,224.337 145.559 C 223.302 145.117,223.887 144.856,225.134 145.202 C 225.832 145.396,226.193 145.354,227.079 144.974 C 228.191 144.497,228.638 143.820,227.637 144.127 C 226.581 144.451,224.971 144.526,224.337 144.281 C 223.549 143.976,223.446 143.422,224.219 143.647 C 225.580 144.044,226.231 144.045,227.118 143.655 L 228.049 143.244 227.052 143.055 C 226.503 142.951,225.708 142.711,225.284 142.522 C 224.860 142.332,224.222 142.112,223.866 142.033 C 223.509 141.953,223.217 141.797,223.217 141.685 C 223.217 141.217,224.523 141.222,225.178 141.693 C 227.268 143.197,229.967 142.363,230.104 140.171 C 230.227 138.220,229.974 137.662,229.267 138.322 C 228.986 138.584,228.465 138.871,228.108 138.959 C 227.360 139.145,227.378 139.102,227.734 139.883 C 227.910 140.271,228.198 140.483,228.545 140.483 C 229.279 140.483,229.493 140.915,228.825 141.050 C 227.156 141.389,226.612 141.365,226.075 140.931 C 225.744 140.663,225.155 140.483,224.606 140.483 C 223.462 140.483,223.407 140.117,224.520 139.908 C 225.165 139.787,225.512 139.867,226.070 140.265 C 226.527 140.590,226.871 140.695,227.015 140.552 C 227.419 140.147,226.979 139.601,225.795 139.038 C 225.155 138.735,224.632 138.405,224.632 138.306 C 224.632 137.984,225.336 138.115,226.328 138.621 C 227.200 139.066,227.319 139.078,227.508 138.739 C 227.624 138.531,227.873 138.362,228.061 138.362 C 229.360 138.362,228.017 137.658,226.464 137.525 C 225.852 137.473,224.967 137.270,224.498 137.074 C 223.030 136.461,222.075 137.701,223.124 138.860 C 223.410 139.176,223.449 139.435,223.286 139.924 C 222.987 140.822,222.403 140.994,222.567 140.137 C 222.634 139.783,222.527 139.079,222.328 138.572 C 221.938 137.581,222.187 136.478,222.800 136.475 C 222.965 136.474,223.387 136.323,223.737 136.140 C 224.480 135.753,225.426 135.909,225.242 136.389 C 225.159 136.606,225.300 136.712,225.672 136.712 C 226.391 136.712,226.673 135.850,226.022 135.643 C 225.767 135.563,225.575 135.285,225.575 134.999 C 225.575 134.608,225.512 134.559,225.292 134.779 C 224.860 135.211,224.562 135.116,224.700 134.590 C 224.792 134.238,224.707 134.119,224.364 134.119 C 223.640 134.119,222.510 133.158,222.510 132.543 C 222.510 132.243,222.616 131.998,222.746 131.998 C 222.876 131.998,222.982 132.145,222.982 132.324 M246.258 133.585 C 246.360 133.895,245.233 134.528,244.998 134.293 C 244.922 134.217,244.932 133.928,245.019 133.652 C 245.193 133.106,246.084 133.058,246.258 133.585 M241.839 138.719 C 241.839 138.785,241.740 139.024,241.620 139.249 C 241.500 139.474,241.337 139.862,241.259 140.110 C 241.165 140.405,241.036 140.482,240.885 140.331 C 240.569 140.015,241.078 138.598,241.508 138.598 C 241.690 138.598,241.839 138.652,241.839 138.719 M234.722 139.910 C 234.740 140.373,234.553 141.195,234.308 141.737 C 234.063 142.279,233.794 142.961,233.710 143.253 C 233.626 143.544,233.458 143.783,233.337 143.783 C 232.953 143.783,233.099 142.927,233.704 141.626 C 234.027 140.933,234.292 140.074,234.294 139.717 C 234.297 138.756,234.686 138.931,234.722 139.910 M233.117 144.249 C 233.117 144.552,231.852 145.197,231.257 145.197 C 230.999 145.197,230.722 145.303,230.642 145.433 C 230.361 145.888,230.021 145.670,230.181 145.138 C 230.418 144.355,230.658 144.183,231.151 144.447 C 231.468 144.617,231.719 144.590,232.046 144.351 C 232.571 143.967,233.117 143.915,233.117 144.249 " stroke="none" fill="#fbfbfb" fill-rule="evenodd"></path><path id="path1" d="M217.947 111.183 C 217.681 111.448,217.785 111.727,218.150 111.727 C 218.344 111.727,218.503 111.627,218.503 111.505 C 218.503 111.208,218.135 110.995,217.947 111.183 M232.027 117.273 C 232.117 117.508,231.962 117.726,231.581 117.900 C 230.845 118.235,230.821 118.530,231.541 118.393 C 232.201 118.266,232.846 116.912,232.247 116.912 C 232.022 116.912,231.940 117.047,232.027 117.273 M240.301 130.357 C 240.063 130.741,240.591 131.218,240.906 130.903 C 241.076 130.733,241.046 130.571,240.809 130.373 C 240.556 130.163,240.423 130.159,240.301 130.357 " stroke="none" fill="#a47544" fill-rule="evenodd"></path><path id="path2" d="M225.716 104.617 C 225.553 104.880,226.843 105.168,227.338 104.978 C 227.533 104.903,227.751 104.996,227.824 105.185 C 227.907 105.404,228.165 105.488,228.532 105.418 C 229.244 105.282,230.622 105.911,231.097 106.589 C 231.421 107.051,231.464 107.058,231.610 106.680 C 232.035 105.571,226.356 103.582,225.716 104.617 M223.928 104.950 C 223.936 105.582,224.373 105.986,224.628 105.598 C 224.998 105.034,224.905 104.655,224.396 104.655 C 224.137 104.655,223.926 104.788,223.928 104.950 M220.738 105.981 C 220.352 106.428,219.833 106.999,219.586 107.250 C 219.151 107.691,219.151 107.711,219.571 107.873 C 219.870 107.988,220.083 107.901,220.256 107.595 C 220.394 107.350,220.798 106.883,221.155 106.557 C 221.511 106.231,221.803 105.835,221.803 105.677 C 221.803 105.083,221.419 105.193,220.738 105.981 M232.410 106.504 C 232.410 106.817,233.338 107.577,233.510 107.405 C 233.595 107.320,233.472 107.038,233.236 106.778 C 232.792 106.287,232.410 106.160,232.410 106.504 M227.634 107.860 C 227.445 108.049,227.692 108.662,227.957 108.662 C 228.073 108.662,228.167 108.450,228.167 108.191 C 228.167 107.731,227.917 107.577,227.634 107.860 M220.153 108.289 C 220.153 108.494,220.321 108.662,220.526 108.662 C 220.943 108.662,220.870 108.155,220.433 108.009 C 220.279 107.958,220.153 108.084,220.153 108.289 M217.796 108.544 C 217.796 108.739,217.891 108.898,218.007 108.898 C 218.122 108.898,218.278 108.739,218.353 108.544 C 218.435 108.329,218.353 108.191,218.142 108.191 C 217.952 108.191,217.796 108.350,217.796 108.544 M233.597 108.770 C 233.209 109.238,233.515 109.724,233.963 109.352 C 234.330 109.047,234.415 108.427,234.089 108.427 C 233.975 108.427,233.754 108.581,233.597 108.770 M235.261 108.696 C 235.348 109.205,234.987 110.268,234.626 110.567 C 234.140 110.971,234.224 111.310,234.767 111.137 C 235.313 110.964,235.369 111.281,234.987 112.377 C 234.829 112.831,234.524 113.151,234.162 113.242 C 233.847 113.321,233.589 113.543,233.589 113.735 C 233.589 113.927,233.427 114.084,233.229 114.084 C 232.825 114.084,232.327 115.176,232.511 115.656 C 232.713 116.184,233.047 116.009,233.589 115.091 C 234.201 114.053,234.767 114.445,234.767 115.909 C 234.767 116.366,235.017 117.069,235.357 117.569 C 235.988 118.498,236.227 118.050,235.617 117.081 C 234.942 116.008,235.355 112.801,236.047 113.747 C 236.468 114.323,236.749 114.047,236.784 113.022 C 236.831 111.685,238.067 110.778,238.067 112.080 C 238.067 112.867,238.445 112.826,238.877 111.992 C 239.314 111.147,239.187 111.019,237.913 111.019 C 236.972 111.019,236.869 111.082,236.550 111.844 C 235.982 113.205,235.742 112.823,235.786 110.627 C 235.817 109.118,235.747 108.558,235.517 108.481 C 235.346 108.424,235.231 108.520,235.261 108.696 M221.401 109.971 C 221.372 111.024,221.890 110.946,221.995 109.882 C 222.045 109.371,221.967 109.134,221.747 109.134 C 221.540 109.134,221.417 109.432,221.401 109.971 M216.441 109.880 C 215.359 110.177,215.455 110.609,216.559 110.410 C 217.591 110.223,217.725 110.140,217.427 109.870 C 217.306 109.760,216.862 109.765,216.441 109.880 M214.485 111.040 C 214.341 111.310,214.293 111.602,214.378 111.687 C 214.538 111.847,215.203 111.083,215.203 110.739 C 215.203 110.364,214.744 110.557,214.485 111.040 M217.718 110.705 C 217.010 111.412,217.822 112.275,218.977 112.044 C 219.760 111.888,219.939 111.491,219.226 111.491 C 218.976 111.491,218.703 111.279,218.621 111.019 C 218.474 110.555,218.024 110.398,217.718 110.705 M218.503 111.505 C 218.503 111.627,218.344 111.727,218.150 111.727 C 217.785 111.727,217.681 111.448,217.947 111.183 C 218.135 110.995,218.503 111.208,218.503 111.505 M222.422 111.443 C 222.195 111.810,222.703 112.335,222.999 112.040 C 223.148 111.890,223.199 111.652,223.112 111.511 C 222.926 111.210,222.587 111.177,222.422 111.443 M239.874 112.119 C 239.509 112.484,239.753 112.905,240.330 112.905 C 240.711 112.905,241.200 113.181,241.625 113.636 L 242.307 114.366 241.820 114.985 C 241.264 115.692,241.615 116.009,242.283 115.404 C 242.513 115.197,242.825 115.027,242.977 115.027 C 243.485 115.027,243.260 114.544,242.324 113.626 C 240.855 112.186,240.206 111.787,239.874 112.119 M213.275 113.082 C 213.203 114.195,213.339 115.371,213.569 115.604 C 213.944 115.986,213.812 116.266,213.318 116.137 C 212.687 115.972,212.724 116.311,213.435 117.245 C 213.760 117.670,214.025 118.140,214.025 118.290 C 214.025 118.440,214.190 118.562,214.392 118.562 C 214.593 118.562,215.077 118.907,215.465 119.328 C 216.159 120.080,216.179 120.085,216.525 119.623 C 216.843 119.199,216.837 119.127,216.474 118.916 C 215.375 118.275,214.260 116.737,214.260 115.860 C 214.260 115.433,214.101 114.952,213.907 114.791 C 213.507 114.459,213.432 113.479,213.789 113.259 C 214.153 113.034,214.068 112.434,213.671 112.434 C 213.453 112.434,213.301 112.682,213.275 113.082 M218.957 112.944 C 218.776 113.759,218.809 114.084,219.098 114.324 C 219.289 114.483,219.446 114.806,219.446 115.041 C 219.446 115.761,219.903 115.802,220.168 115.107 C 220.363 114.593,220.343 114.398,220.077 114.203 C 219.890 114.066,219.698 113.753,219.650 113.508 C 219.579 113.139,219.016 112.681,218.957 112.944 M243.724 115.790 C 243.724 116.096,243.592 116.480,243.430 116.642 C 243.194 116.879,243.253 117.027,243.724 117.384 L 244.313 117.830 243.860 118.674 C 243.514 119.319,243.472 119.583,243.684 119.794 C 244.099 120.210,244.022 120.573,243.350 121.373 L 242.739 122.098 243.350 122.098 C 244.068 122.098,244.148 122.452,243.507 122.795 C 242.550 123.307,241.956 124.219,242.579 124.219 C 242.726 124.219,242.982 124.403,243.147 124.629 C 243.430 125.016,243.471 125.015,243.919 124.610 C 244.381 124.191,244.400 124.201,244.792 125.026 C 245.012 125.490,245.286 125.869,245.401 125.869 C 245.688 125.869,245.666 124.989,245.374 124.808 C 245.245 124.728,245.138 124.478,245.138 124.252 C 245.138 124.027,245.010 123.713,244.852 123.556 C 244.663 123.367,244.550 122.250,244.518 120.268 C 244.468 117.117,244.285 115.581,243.934 115.364 C 243.819 115.293,243.724 115.485,243.724 115.790 M245.138 116.441 C 245.138 116.570,245.294 116.676,245.484 116.676 C 245.674 116.676,245.944 116.892,246.085 117.155 C 246.226 117.417,246.440 117.571,246.562 117.496 C 246.905 117.284,246.086 116.205,245.583 116.205 C 245.338 116.205,245.138 116.311,245.138 116.441 M231.769 116.705 C 231.623 116.851,231.557 117.107,231.622 117.276 C 231.693 117.462,231.525 117.612,231.191 117.660 C 230.379 117.775,230.434 118.680,231.253 118.680 C 231.946 118.680,232.646 119.168,232.646 119.652 C 232.646 119.830,232.752 119.976,232.882 119.976 C 233.221 119.976,233.158 119.225,232.775 118.720 C 232.524 118.388,232.505 118.123,232.697 117.575 C 232.891 117.017,232.874 116.816,232.619 116.655 C 232.190 116.383,232.084 116.390,231.769 116.705 M232.345 117.600 C 232.186 118.021,231.874 118.329,231.541 118.393 C 230.821 118.530,230.845 118.235,231.581 117.900 C 231.962 117.726,232.117 117.508,232.027 117.273 C 231.940 117.047,232.022 116.912,232.247 116.912 C 232.545 116.912,232.561 117.028,232.345 117.600 M246.788 118.091 C 246.788 118.220,247.007 118.326,247.274 118.326 C 247.541 118.326,247.694 118.220,247.613 118.091 C 247.533 117.961,247.315 117.855,247.128 117.855 C 246.941 117.855,246.788 117.961,246.788 118.091 M228.171 119.315 C 227.543 120.164,227.680 120.388,228.498 119.852 C 229.142 119.430,229.193 119.470,229.413 120.566 C 229.494 120.972,229.546 120.942,229.790 120.349 C 230.405 118.847,229.123 118.028,228.171 119.315 M247.496 118.798 C 247.496 118.928,247.655 119.034,247.849 119.034 C 248.044 119.034,248.203 118.928,248.203 118.798 C 248.203 118.668,248.044 118.562,247.849 118.562 C 247.655 118.562,247.496 118.668,247.496 118.798 M247.967 119.976 C 247.967 120.106,248.064 120.212,248.183 120.212 C 248.302 120.212,248.568 120.277,248.773 120.355 C 249.017 120.449,249.146 120.368,249.146 120.120 C 249.146 119.873,248.940 119.741,248.556 119.741 C 248.232 119.741,247.967 119.847,247.967 119.976 M248.262 120.947 C 247.481 121.173,247.263 121.510,247.785 121.684 C 247.996 121.754,247.959 121.957,247.649 122.431 C 247.414 122.789,247.287 123.147,247.367 123.227 C 247.600 123.459,249.694 121.235,249.515 120.945 C 249.331 120.647,249.302 120.647,248.262 120.947 M246.425 122.114 C 246.340 122.252,246.326 122.421,246.396 122.491 C 246.564 122.660,247.024 122.362,247.024 122.084 C 247.024 121.783,246.617 121.803,246.425 122.114 M248.910 122.558 C 248.910 122.681,249.095 122.885,249.322 123.012 C 249.686 123.216,249.651 123.279,249.028 123.546 L 248.321 123.848 249.204 123.930 C 250.130 124.016,250.606 124.757,250.175 125.443 C 250.069 125.613,250.014 125.944,250.053 126.179 C 250.139 126.704,249.543 127.652,248.915 127.988 C 248.445 128.239,246.329 127.323,245.364 126.449 C 244.636 125.790,244.356 126.313,245.035 127.063 C 245.370 127.434,245.354 127.518,244.839 128.033 C 244.529 128.342,244.162 128.800,244.023 129.048 C 243.805 129.437,243.684 129.462,243.166 129.226 C 242.497 128.921,242.059 129.248,242.519 129.708 C 242.922 130.111,242.833 130.539,242.286 130.832 C 241.857 131.061,241.704 130.994,241.149 130.329 C 240.427 129.463,239.953 129.553,239.953 130.556 C 239.953 131.485,240.984 132.456,241.324 131.847 C 241.799 130.999,242.878 131.699,243.017 132.945 C 243.207 134.646,243.614 133.951,243.540 132.052 C 243.486 130.668,243.544 130.312,243.844 130.196 C 244.049 130.118,244.420 129.654,244.669 129.165 C 245.505 127.527,245.704 127.439,247.047 128.120 C 248.202 128.705,248.218 128.729,248.065 129.590 C 247.920 130.411,247.496 131.218,247.496 130.676 C 247.496 130.545,247.340 130.232,247.150 129.980 C 246.822 129.547,246.803 129.564,246.796 130.289 C 246.791 130.816,246.899 131.055,247.142 131.055 C 247.336 131.055,247.496 131.196,247.496 131.369 C 247.496 131.857,247.217 132.020,246.872 131.733 C 246.498 131.423,246.181 132.010,246.405 132.595 C 246.625 133.166,247.918 132.399,248.115 131.581 C 248.200 131.227,248.452 130.566,248.675 130.112 C 248.898 129.658,249.035 129.162,248.981 129.008 C 248.926 128.855,249.090 128.618,249.346 128.481 C 250.675 127.769,251.383 124.788,250.463 123.771 C 250.215 123.497,250.082 123.204,250.166 123.120 C 250.251 123.035,250.202 122.824,250.057 122.650 C 249.758 122.289,248.910 122.220,248.910 122.558 M241.131 124.573 C 241.131 124.767,241.237 124.926,241.367 124.926 C 241.497 124.926,241.603 124.767,241.603 124.573 C 241.603 124.378,241.497 124.219,241.367 124.219 C 241.237 124.219,241.131 124.378,241.131 124.573 M247.613 124.926 C 247.528 125.064,247.768 125.162,248.189 125.162 C 248.585 125.162,248.910 125.056,248.910 124.926 C 248.910 124.797,248.651 124.691,248.334 124.691 C 248.018 124.691,247.694 124.797,247.613 124.926 M245.538 129.320 C 245.282 129.575,245.346 130.583,245.617 130.583 C 245.751 130.583,245.919 130.431,245.991 130.244 C 246.145 129.842,245.774 129.084,245.538 129.320 M240.906 130.903 C 240.591 131.218,240.063 130.741,240.301 130.357 C 240.423 130.159,240.556 130.163,240.809 130.373 C 241.046 130.571,241.076 130.733,240.906 130.903 M245.322 130.966 C 245.257 131.079,245.135 131.461,245.051 131.813 C 244.953 132.223,244.782 132.408,244.576 132.329 C 244.336 132.237,244.210 132.558,244.083 133.575 C 243.989 134.328,243.817 135.123,243.700 135.342 C 243.444 135.822,243.807 136.130,244.130 135.707 C 244.253 135.547,244.485 134.806,244.645 134.060 C 244.832 133.189,245.055 132.705,245.269 132.705 C 245.695 132.705,245.956 131.682,245.664 131.159 C 245.540 130.939,245.386 130.852,245.322 130.966 M222.510 132.543 C 222.510 133.158,223.640 134.119,224.364 134.119 C 224.707 134.119,224.792 134.238,224.700 134.590 C 224.562 135.116,224.860 135.211,225.292 134.779 C 225.512 134.559,225.575 134.608,225.575 134.999 C 225.575 135.285,225.767 135.563,226.022 135.643 C 226.673 135.850,226.391 136.712,225.672 136.712 C 225.300 136.712,225.159 136.606,225.242 136.389 C 225.426 135.909,224.480 135.753,223.737 136.140 C 223.387 136.323,222.965 136.474,222.800 136.475 C 222.187 136.478,221.938 137.581,222.328 138.572 C 222.527 139.079,222.634 139.783,222.567 140.137 C 222.403 140.994,222.987 140.822,223.286 139.924 C 223.449 139.435,223.410 139.176,223.124 138.860 C 222.075 137.701,223.030 136.461,224.498 137.074 C 224.967 137.270,225.852 137.473,226.464 137.525 C 228.017 137.658,229.360 138.362,228.061 138.362 C 227.873 138.362,227.624 138.531,227.508 138.739 C 227.319 139.078,227.200 139.066,226.328 138.621 C 225.336 138.115,224.632 137.984,224.632 138.306 C 224.632 138.405,225.155 138.735,225.795 139.038 C 226.979 139.601,227.419 140.147,227.015 140.552 C 226.871 140.695,226.527 140.590,226.070 140.265 C 225.512 139.867,225.165 139.787,224.520 139.908 C 223.407 140.117,223.462 140.483,224.606 140.483 C 225.155 140.483,225.744 140.663,226.075 140.931 C 226.612 141.365,227.156 141.389,228.825 141.050 C 229.493 140.915,229.279 140.483,228.545 140.483 C 228.198 140.483,227.910 140.271,227.734 139.883 C 227.378 139.102,227.360 139.145,228.108 138.959 C 228.465 138.871,228.986 138.584,229.267 138.322 C 229.974 137.662,230.227 138.220,230.104 140.171 C 229.967 142.363,227.268 143.197,225.178 141.693 C 224.523 141.222,223.217 141.217,223.217 141.685 C 223.217 141.797,223.509 141.953,223.866 142.033 C 224.222 142.112,224.860 142.332,225.284 142.522 C 225.708 142.711,226.503 142.951,227.052 143.055 L 228.049 143.244 227.118 143.655 C 226.231 144.045,225.580 144.044,224.219 143.647 C 223.446 143.422,223.549 143.976,224.337 144.281 C 224.971 144.526,226.581 144.451,227.637 144.127 C 228.638 143.820,228.191 144.497,227.079 144.974 C 226.193 145.354,225.832 145.396,225.134 145.202 C 223.887 144.856,223.302 145.117,224.337 145.559 C 225.826 146.194,230.066 145.724,229.595 144.977 C 229.417 144.694,229.320 144.690,229.005 144.952 C 228.288 145.546,228.360 144.991,229.146 143.859 C 229.837 142.865,229.945 142.789,230.011 143.253 C 230.097 143.861,230.760 143.984,230.760 143.391 C 230.760 143.176,231.035 142.531,231.370 141.958 C 231.783 141.254,231.934 140.733,231.837 140.347 C 231.635 139.540,231.275 139.639,231.188 140.524 C 231.147 140.935,230.965 141.321,230.782 141.381 C 230.427 141.498,230.578 138.199,230.944 137.861 C 232.035 136.854,233.101 137.826,232.747 139.504 C 232.371 141.288,231.841 143.109,231.666 143.217 C 231.350 143.412,231.436 143.783,231.795 143.783 C 232.395 143.783,233.272 140.496,233.351 137.951 C 233.352 137.920,233.788 137.911,234.319 137.932 C 235.492 137.978,235.967 138.670,235.512 139.669 C 235.065 140.650,235.152 142.856,235.613 142.251 C 235.811 141.992,235.927 141.534,235.871 141.233 C 235.726 140.456,236.284 138.729,236.707 138.645 C 237.235 138.541,237.357 139.390,236.973 140.504 C 236.787 141.044,236.693 141.545,236.765 141.617 C 237.173 142.025,237.934 139.837,237.722 138.870 C 237.621 138.414,237.689 138.106,237.936 137.901 C 238.440 137.483,238.642 138.079,238.455 139.436 C 238.376 140.016,238.408 140.483,238.527 140.483 C 238.848 140.483,239.105 139.559,239.117 138.362 C 239.127 137.373,239.173 137.296,239.802 137.224 C 240.288 137.168,240.440 137.234,240.348 137.460 C 239.805 138.795,239.437 140.262,239.563 140.590 C 239.770 141.130,240.189 140.819,240.189 140.124 C 240.189 139.813,240.388 139.050,240.631 138.429 C 240.950 137.614,241.013 137.142,240.858 136.727 C 240.689 136.276,240.745 136.050,241.123 135.673 C 241.565 135.230,241.603 135.226,241.603 135.618 C 241.603 136.400,242.191 135.863,242.263 135.015 C 242.318 134.382,242.232 134.145,241.910 134.032 C 241.676 133.950,241.348 133.820,241.180 133.742 C 240.956 133.639,240.915 133.758,241.024 134.195 C 241.141 134.662,241.046 134.871,240.577 135.179 C 240.249 135.393,239.948 135.800,239.908 136.082 C 239.849 136.499,239.609 136.632,238.617 136.801 C 237.731 136.951,237.368 137.128,237.284 137.449 C 237.141 137.997,236.284 138.031,235.987 137.502 C 235.842 137.242,235.594 137.159,235.242 137.251 C 234.850 137.353,234.685 137.271,234.596 136.932 C 234.455 136.395,234.060 136.319,234.060 136.830 C 234.060 137.300,233.207 137.285,233.025 136.810 C 232.946 136.605,232.882 136.128,232.882 135.750 C 232.882 135.371,232.787 135.062,232.671 135.062 C 232.399 135.062,232.174 135.656,232.174 136.378 C 232.174 136.811,232.047 136.948,231.644 136.951 C 231.352 136.953,230.878 137.017,230.590 137.094 C 230.183 137.204,230.004 137.098,229.786 136.620 C 229.404 135.780,229.018 135.840,229.193 136.712 C 229.306 137.280,229.254 137.418,228.928 137.412 C 228.224 137.399,227.239 136.354,227.389 135.780 C 227.490 135.395,227.399 135.237,227.020 135.138 C 226.436 134.986,226.361 134.635,226.871 134.440 C 227.540 134.183,227.223 133.883,226.282 133.883 C 225.618 133.883,225.339 133.783,225.339 133.544 C 225.339 133.054,224.901 132.855,224.519 133.172 C 224.129 133.495,222.982 132.862,222.982 132.324 C 222.982 132.145,222.876 131.998,222.746 131.998 C 222.616 131.998,222.510 132.243,222.510 132.543 M245.019 133.652 C 244.803 134.334,245.020 134.485,245.745 134.154 C 246.440 133.837,246.400 133.329,245.671 133.221 C 245.338 133.172,245.127 133.311,245.019 133.652 M240.916 139.349 C 240.745 139.839,240.734 140.180,240.885 140.331 C 241.036 140.482,241.165 140.405,241.259 140.110 C 241.337 139.862,241.500 139.474,241.620 139.249 C 241.914 138.698,241.897 138.598,241.508 138.598 C 241.326 138.598,241.060 138.936,240.916 139.349 M234.294 139.717 C 234.292 140.074,234.027 140.933,233.704 141.626 C 233.099 142.927,232.953 143.783,233.337 143.783 C 233.458 143.783,233.626 143.544,233.710 143.253 C 233.794 142.961,234.063 142.279,234.308 141.737 C 234.752 140.756,234.869 139.069,234.493 139.069 C 234.385 139.069,234.295 139.361,234.294 139.717 M232.046 144.351 C 231.719 144.590,231.468 144.617,231.151 144.447 C 230.658 144.183,230.418 144.355,230.181 145.138 C 230.021 145.670,230.361 145.888,230.642 145.433 C 230.722 145.303,230.999 145.197,231.257 145.197 C 231.852 145.197,233.117 144.552,233.117 144.249 C 233.117 143.915,232.571 143.967,232.046 144.351 " stroke="none" fill="#ceb59c" fill-rule="evenodd"></path></g></svg>