<svg id="svg" version="1.1" xmlns="http://www.w3.org/2000/svg" xmlns:xlink="http://www.w3.org/1999/xlink" width="400" height="565.6565656565656" viewBox="0, 0, 400,565.6565656565656"><g id="svgg"><path id="path0" d="M0.000 282.852 L 0.000 565.704 200.000 565.704 L 400.000 565.704 400.000 282.852 L 400.000 0.000 200.000 0.000 L 0.000 0.000 0.000 282.852 M228.910 104.398 C 229.787 104.507,230.512 104.769,231.033 105.167 C 231.469 105.500,232.151 105.843,232.549 105.930 C 232.947 106.018,233.636 106.483,234.080 106.963 C 234.524 107.444,235.181 107.969,235.541 108.130 C 236.377 108.504,236.540 108.950,236.144 109.773 C 235.961 110.151,235.877 110.817,235.945 111.342 L 236.064 112.253 236.513 111.754 C 237.042 111.166,237.691 111.123,238.631 111.614 C 239.007 111.809,239.537 111.951,239.810 111.929 C 240.977 111.835,241.625 111.982,241.771 112.375 C 241.992 112.966,243.095 114.319,243.355 114.319 C 243.700 114.319,244.667 115.309,244.667 115.661 C 244.667 115.878,244.846 115.933,245.234 115.836 C 245.939 115.659,247.532 117.012,248.230 118.381 C 248.486 118.882,248.850 119.352,249.039 119.424 C 250.234 119.883,251.392 123.238,251.295 125.959 C 251.216 128.166,249.168 131.542,246.033 134.635 C 245.022 135.632,244.196 136.601,244.196 136.789 C 244.196 136.977,243.827 137.540,243.377 138.041 C 242.926 138.542,242.316 139.307,242.021 139.741 C 241.726 140.175,241.220 140.666,240.896 140.831 C 240.572 140.996,239.868 141.356,239.331 141.632 C 238.795 141.908,238.126 142.133,237.844 142.133 C 237.563 142.133,236.931 142.456,236.440 142.850 C 235.949 143.245,234.844 143.813,233.984 144.114 C 233.123 144.414,232.285 144.762,232.120 144.886 C 231.753 145.164,230.106 145.631,229.464 145.639 C 228.776 145.649,226.796 145.840,225.575 146.014 C 223.979 146.243,222.871 145.502,223.060 144.334 C 223.144 143.820,223.074 143.303,222.880 142.992 C 222.706 142.714,222.497 142.105,222.415 141.639 C 222.287 140.905,222.144 140.754,221.356 140.518 C 220.363 140.221,220.137 139.857,219.564 137.636 C 219.383 136.933,218.953 135.563,218.608 134.590 C 217.516 131.509,217.937 127.117,219.456 125.742 C 220.028 125.225,220.045 124.927,219.505 124.923 C 218.376 124.915,215.096 123.503,214.208 122.644 C 212.155 120.658,211.891 118.830,213.385 116.960 C 213.737 116.519,213.736 115.198,213.383 114.833 C 213.024 114.462,212.987 113.699,213.318 113.494 C 213.447 113.414,213.553 113.044,213.553 112.671 C 213.553 111.828,213.936 110.784,214.244 110.784 C 214.371 110.784,214.878 110.509,215.370 110.173 C 216.105 109.671,216.441 109.586,217.259 109.696 C 218.247 109.829,218.253 109.826,218.120 109.163 C 217.966 108.390,218.879 107.484,219.813 107.484 C 220.220 107.484,220.389 107.311,220.507 106.775 C 220.593 106.385,220.893 105.943,221.174 105.793 C 221.455 105.644,221.802 105.362,221.946 105.168 C 222.089 104.974,222.778 104.722,223.478 104.607 C 224.177 104.493,225.227 104.313,225.810 104.206 C 226.394 104.100,227.030 104.062,227.225 104.123 C 227.419 104.183,228.177 104.307,228.910 104.398 " stroke="none" fill="#fbfbfb" fill-rule="evenodd"></path><path id="path1" d="M224.761 104.401 C 224.675 104.541,224.181 104.655,223.664 104.655 C 223.009 104.655,222.559 104.816,222.177 105.186 C 221.877 105.477,221.431 105.833,221.186 105.975 C 220.932 106.124,220.710 106.560,220.667 106.996 C 220.614 107.535,220.495 107.720,220.261 107.631 C 219.296 107.260,217.744 108.591,218.315 109.300 C 218.723 109.808,218.311 110.067,217.530 109.795 C 216.780 109.534,216.808 109.525,214.660 110.697 C 213.993 111.061,213.498 111.957,213.582 112.648 C 213.608 112.854,213.547 113.314,213.448 113.671 C 213.348 114.027,213.347 114.504,213.446 114.731 C 213.834 115.628,213.721 116.794,213.166 117.615 C 211.367 120.274,213.825 123.455,218.570 124.609 L 220.168 124.998 219.677 125.520 C 218.882 126.367,218.042 129.082,218.037 130.824 C 218.032 132.292,218.309 133.486,219.454 136.948 C 220.541 140.230,220.477 140.114,221.341 140.393 C 222.042 140.620,222.214 140.831,222.561 141.891 C 222.784 142.570,223.080 143.264,223.221 143.434 C 223.398 143.647,223.400 143.788,223.229 143.894 C 221.962 144.677,223.770 146.033,225.790 145.814 C 226.514 145.736,227.849 145.636,228.757 145.591 C 230.528 145.505,230.784 145.437,232.410 144.617 C 232.994 144.323,233.986 143.935,234.615 143.756 C 235.294 143.563,236.060 143.120,236.500 142.666 C 237.016 142.135,237.462 141.902,237.963 141.900 C 238.360 141.899,238.890 141.742,239.142 141.551 C 239.393 141.361,239.733 141.202,239.897 141.198 C 240.408 141.185,241.829 140.152,241.982 139.683 C 242.062 139.437,242.525 138.801,243.010 138.269 C 243.496 137.736,243.987 137.027,244.103 136.691 C 244.219 136.356,244.897 135.569,245.610 134.942 C 246.323 134.316,247.059 133.589,247.246 133.327 C 247.432 133.065,247.777 132.659,248.012 132.424 C 248.246 132.190,248.438 131.899,248.438 131.779 C 248.438 131.658,248.576 131.420,248.744 131.248 C 249.275 130.708,250.560 128.742,250.560 128.470 C 250.560 128.327,250.711 127.975,250.896 127.688 C 251.903 126.122,250.963 121.681,249.216 119.750 C 248.529 118.991,247.967 118.224,247.967 118.045 C 247.967 117.507,245.903 115.928,245.310 116.013 C 244.972 116.061,244.699 115.920,244.542 115.616 C 244.409 115.357,243.962 114.933,243.550 114.673 C 243.137 114.414,242.795 114.075,242.790 113.920 C 242.785 113.766,242.596 113.499,242.369 113.327 C 242.142 113.156,241.839 112.805,241.694 112.548 C 241.489 112.182,241.166 112.074,240.205 112.052 C 239.530 112.037,238.858 111.904,238.711 111.758 C 238.161 111.208,236.920 111.451,236.158 112.257 C 235.760 112.678,235.508 112.881,235.599 112.708 C 235.689 112.535,235.806 111.899,235.858 111.294 C 235.911 110.689,236.017 109.796,236.093 109.310 C 236.226 108.474,236.194 108.417,235.527 108.284 C 235.096 108.198,234.720 107.922,234.563 107.578 C 234.422 107.267,234.145 107.012,233.947 107.012 C 233.750 107.012,233.589 106.865,233.589 106.684 C 233.589 106.324,233.094 106.070,232.393 106.070 C 232.145 106.070,231.454 105.696,230.857 105.241 C 230.073 104.642,229.531 104.412,228.910 104.411 C 228.437 104.411,227.345 104.351,226.484 104.279 C 225.479 104.193,224.862 104.237,224.761 104.401 M227.308 107.435 C 227.181 109.228,227.217 109.564,227.578 109.925 C 228.110 110.457,228.503 110.114,228.566 109.063 C 228.792 105.333,229.013 105.057,230.705 106.402 C 231.333 106.901,231.878 107.158,232.156 107.086 C 232.456 107.007,232.649 107.122,232.750 107.440 C 232.832 107.700,233.057 107.972,233.249 108.046 C 233.531 108.154,233.545 108.268,233.321 108.626 C 232.680 109.652,233.664 110.203,234.774 109.440 C 235.342 109.048,235.348 109.050,235.003 109.499 C 234.808 109.752,234.517 110.044,234.355 110.147 C 233.920 110.425,233.980 111.491,234.431 111.491 C 235.038 111.491,234.714 112.266,233.890 112.784 C 233.475 113.045,233.131 113.348,233.126 113.457 C 233.121 113.565,232.884 113.844,232.599 114.074 C 232.237 114.367,232.080 114.753,232.080 115.350 C 232.080 115.882,231.968 116.205,231.782 116.205 C 231.618 116.205,231.370 116.417,231.232 116.676 C 231.069 116.981,230.738 117.148,230.298 117.148 C 229.867 117.148,229.457 117.348,229.186 117.691 C 228.950 117.989,228.571 118.304,228.344 118.391 C 227.887 118.564,227.792 119.155,228.182 119.396 C 228.320 119.481,228.529 119.806,228.647 120.117 C 229.012 121.076,229.959 120.884,230.214 119.800 C 230.506 118.558,231.939 118.301,231.939 119.490 C 231.939 120.108,232.026 120.212,232.543 120.212 C 233.132 120.212,233.145 120.178,233.075 118.777 C 232.957 116.380,234.352 116.070,234.946 118.361 C 235.188 119.296,235.803 119.505,236.189 118.785 C 236.388 118.412,236.396 118.006,236.218 117.297 C 235.702 115.242,235.690 114.517,236.177 114.671 C 236.679 114.831,237.122 114.243,236.961 113.628 C 236.779 112.931,237.743 112.281,238.262 112.751 C 238.544 113.006,239.049 113.127,239.722 113.100 C 240.357 113.075,240.788 113.171,240.847 113.349 C 240.900 113.508,241.134 113.818,241.366 114.038 C 241.598 114.258,241.827 114.649,241.875 114.907 C 241.932 115.213,242.207 115.420,242.666 115.501 C 243.322 115.617,243.365 115.688,243.291 116.527 C 243.229 117.229,243.319 117.504,243.701 117.771 C 244.153 118.087,244.163 118.157,243.834 118.660 C 243.561 119.075,243.533 119.356,243.715 119.834 C 243.938 120.422,243.881 120.507,242.837 121.149 C 240.996 122.280,240.851 122.418,241.023 122.864 C 241.220 123.374,241.650 123.386,242.579 122.905 C 242.974 122.701,243.351 122.588,243.416 122.654 C 243.482 122.720,242.902 123.094,242.128 123.485 C 240.703 124.204,240.328 124.637,240.575 125.280 C 240.776 125.805,241.325 125.711,242.158 125.009 C 242.781 124.485,242.911 124.447,242.975 124.774 C 243.028 125.042,243.296 125.162,243.845 125.162 C 244.749 125.162,245.133 125.518,244.429 125.702 C 243.873 125.848,243.789 126.761,244.313 126.962 C 245.086 127.259,243.692 128.933,242.671 128.933 C 242.140 128.933,242.073 129.031,242.064 129.817 L 242.053 130.701 241.572 129.788 C 241.246 129.170,241.134 128.637,241.225 128.138 C 241.379 127.293,240.928 126.223,240.417 126.223 C 240.227 126.223,239.997 126.044,239.907 125.826 C 239.710 125.348,238.362 125.306,237.831 125.761 C 237.637 125.928,237.107 126.160,236.653 126.277 C 235.248 126.637,235.516 127.383,237.082 127.473 C 238.228 127.539,238.357 127.604,238.575 128.230 C 238.706 128.606,238.993 128.971,239.213 129.041 C 239.523 129.139,239.592 129.380,239.521 130.120 C 239.450 130.870,239.569 131.273,240.080 132.011 L 240.730 132.949 240.282 133.790 C 240.036 134.252,239.649 134.732,239.423 134.855 C 239.196 134.978,239.010 135.234,239.010 135.424 C 239.010 135.614,238.916 135.769,238.802 135.769 C 238.687 135.769,238.533 136.002,238.458 136.286 C 238.330 136.778,238.302 136.784,237.876 136.398 C 237.301 135.878,236.653 136.123,236.653 136.860 C 236.653 137.413,236.636 137.419,236.065 137.045 C 235.742 136.833,235.337 136.714,235.165 136.780 C 234.992 136.846,234.719 136.689,234.557 136.429 C 234.377 136.141,234.096 136.002,233.832 136.071 C 233.504 136.157,233.367 136.016,233.261 135.488 C 233.075 134.555,232.095 134.614,231.985 135.565 C 231.897 136.324,230.576 136.746,230.229 136.126 C 229.959 135.643,229.194 135.674,228.873 136.181 C 228.686 136.477,228.576 136.510,228.488 136.299 C 228.419 136.137,228.172 136.005,227.937 136.005 C 227.511 136.005,227.494 135.937,227.473 134.076 C 227.464 133.332,227.121 133.066,226.257 133.132 C 225.793 133.167,225.596 133.049,225.499 132.676 C 225.396 132.284,225.234 132.198,224.764 132.288 L 224.162 132.403 224.750 131.815 C 225.935 130.630,224.375 128.582,223.097 129.643 C 222.883 129.820,222.746 129.838,222.746 129.689 C 222.746 129.554,222.683 129.280,222.607 129.080 C 222.510 128.829,222.653 128.671,223.070 128.566 C 223.734 128.400,224.037 127.774,223.807 127.048 C 223.704 126.725,223.764 126.576,223.998 126.576 C 224.487 126.576,224.900 125.994,224.728 125.545 C 224.318 124.476,222.088 125.799,222.374 126.942 C 222.474 127.339,222.421 127.519,222.204 127.519 C 220.805 127.519,220.629 129.088,221.361 135.011 C 221.639 137.252,221.806 139.145,221.732 139.218 C 221.459 139.492,221.109 139.025,220.953 138.177 C 220.864 137.695,220.419 136.293,219.965 135.062 C 218.578 131.305,218.858 128.227,220.786 126.045 C 221.975 124.699,221.599 124.200,218.933 123.584 C 215.576 122.809,212.484 119.945,213.695 118.734 C 213.925 118.504,215.029 119.017,215.379 119.516 C 215.760 120.059,216.216 120.107,216.602 119.642 C 216.871 119.317,215.659 116.676,215.240 116.676 C 215.155 116.676,215.066 116.184,215.043 115.581 C 215.020 114.979,214.876 114.409,214.724 114.315 C 214.529 114.194,214.518 114.013,214.686 113.699 C 214.817 113.454,214.872 112.983,214.809 112.652 C 214.713 112.152,214.856 111.943,215.651 111.417 C 216.906 110.586,217.325 110.598,217.325 111.464 C 217.325 111.929,217.511 112.266,217.914 112.530 C 218.258 112.756,218.503 113.140,218.503 113.455 C 218.503 113.752,218.715 114.222,218.975 114.501 C 219.234 114.779,219.446 115.213,219.446 115.466 C 219.446 115.948,221.205 117.148,221.911 117.148 C 222.656 117.148,222.617 116.398,221.839 115.759 C 221.385 115.385,221.093 114.928,221.094 114.592 C 221.095 114.235,220.928 113.996,220.620 113.915 C 220.308 113.833,220.215 113.699,220.351 113.525 C 221.068 112.607,220.052 110.164,219.169 110.682 C 218.997 110.782,219.055 110.639,219.297 110.362 C 219.601 110.016,219.691 109.674,219.587 109.261 C 219.500 108.913,219.538 108.662,219.677 108.662 C 219.809 108.662,219.918 108.831,219.918 109.036 C 219.918 109.242,220.218 109.524,220.586 109.663 C 221.099 109.856,221.318 110.154,221.530 110.946 C 221.839 112.103,222.359 112.451,222.928 111.881 C 223.279 111.530,223.278 111.434,222.910 110.663 C 222.690 110.202,222.510 109.483,222.510 109.065 C 222.510 108.560,222.352 108.205,222.039 108.010 C 221.371 107.593,221.436 106.861,222.157 106.680 C 222.481 106.599,222.746 106.386,222.746 106.208 C 222.746 105.714,223.395 105.573,223.800 105.979 C 224.056 106.235,224.161 106.828,224.162 108.031 C 224.163 110.385,224.507 111.542,225.177 111.446 C 225.740 111.366,225.755 111.114,225.434 107.071 L 225.299 105.362 226.377 105.362 L 227.455 105.362 227.308 107.435 M234.614 115.623 C 234.541 115.814,234.386 115.969,234.271 115.969 C 234.029 115.969,233.986 115.415,234.211 115.190 C 234.462 114.939,234.756 115.254,234.614 115.623 " stroke="none" fill="#c77e2f" fill-rule="evenodd"></path><path id="path2" d="" stroke="none" fill="#e67615" fill-rule="evenodd"></path><path id="path3" d="M225.434 107.071 C 225.755 111.114,225.740 111.366,225.177 111.446 C 224.507 111.542,224.163 110.385,224.162 108.031 C 224.161 106.828,224.056 106.235,223.800 105.979 C 223.395 105.573,222.746 105.714,222.746 106.208 C 222.746 106.386,222.481 106.599,222.157 106.680 C 221.436 106.861,221.371 107.593,222.039 108.010 C 222.352 108.205,222.510 108.560,222.510 109.065 C 222.510 109.483,222.690 110.202,222.910 110.663 C 223.278 111.434,223.279 111.530,222.928 111.881 C 222.359 112.451,221.839 112.103,221.530 110.946 C 221.318 110.154,221.099 109.856,220.586 109.663 C 220.218 109.524,219.918 109.242,219.918 109.036 C 219.918 108.831,219.809 108.662,219.677 108.662 C 219.538 108.662,219.500 108.913,219.587 109.261 C 219.691 109.674,219.601 110.016,219.297 110.362 C 219.055 110.639,218.997 110.782,219.169 110.682 C 220.052 110.164,221.068 112.607,220.351 113.525 C 220.215 113.699,220.308 113.833,220.620 113.915 C 220.928 113.996,221.095 114.235,221.094 114.592 C 221.093 114.928,221.385 115.385,221.839 115.759 C 222.617 116.398,222.656 117.148,221.911 117.148 C 221.205 117.148,219.446 115.948,219.446 115.466 C 219.446 115.213,219.234 114.779,218.975 114.501 C 218.715 114.222,218.503 113.752,218.503 113.455 C 218.503 113.140,218.258 112.756,217.914 112.530 C 217.511 112.266,217.325 111.929,217.325 111.464 C 217.325 110.598,216.906 110.586,215.651 111.417 C 214.856 111.943,214.713 112.152,214.809 112.652 C 214.872 112.983,214.817 113.454,214.686 113.699 C 214.518 114.013,214.529 114.194,214.724 114.315 C 214.876 114.409,215.020 114.979,215.043 115.581 C 215.066 116.184,215.155 116.676,215.240 116.676 C 215.659 116.676,216.871 119.317,216.602 119.642 C 216.216 120.107,215.760 120.059,215.379 119.516 C 215.029 119.017,213.925 118.504,213.695 118.734 C 212.484 119.945,215.576 122.809,218.933 123.584 C 221.599 124.200,221.975 124.699,220.786 126.045 C 218.858 128.227,218.578 131.305,219.965 135.062 C 220.419 136.293,220.864 137.695,220.953 138.177 C 221.109 139.025,221.459 139.492,221.732 139.218 C 221.806 139.145,221.639 137.252,221.361 135.011 C 220.629 129.088,220.805 127.519,222.204 127.519 C 222.421 127.519,222.474 127.339,222.374 126.942 C 222.088 125.799,224.318 124.476,224.728 125.545 C 224.900 125.994,224.487 126.576,223.998 126.576 C 223.764 126.576,223.704 126.725,223.807 127.048 C 224.037 127.774,223.734 128.400,223.070 128.566 C 222.653 128.671,222.510 128.829,222.607 129.080 C 222.683 129.280,222.746 129.554,222.746 129.689 C 222.746 129.838,222.883 129.820,223.097 129.643 C 224.375 128.582,225.935 130.630,224.750 131.815 L 224.162 132.403 224.764 132.288 C 225.234 132.198,225.396 132.284,225.499 132.676 C 225.596 133.049,225.793 133.167,226.257 133.132 C 227.121 133.066,227.464 133.332,227.473 134.076 C 227.494 135.937,227.511 136.005,227.937 136.005 C 228.172 136.005,228.419 136.137,228.488 136.299 C 228.576 136.510,228.686 136.477,228.873 136.181 C 229.194 135.674,229.959 135.643,230.229 136.126 C 230.576 136.746,231.897 136.324,231.985 135.565 C 232.095 134.614,233.075 134.555,233.261 135.488 C 233.367 136.016,233.504 136.157,233.832 136.071 C 234.096 136.002,234.377 136.141,234.557 136.429 C 234.719 136.689,234.992 136.846,235.165 136.780 C 235.337 136.714,235.742 136.833,236.065 137.045 C 236.636 137.419,236.653 137.413,236.653 136.860 C 236.653 136.123,237.301 135.878,237.876 136.398 C 238.302 136.784,238.330 136.778,238.458 136.286 C 238.533 136.002,238.687 135.769,238.802 135.769 C 238.916 135.769,239.010 135.614,239.010 135.424 C 239.010 135.234,239.196 134.978,239.423 134.855 C 239.649 134.732,240.036 134.252,240.282 133.790 L 240.730 132.949 240.080 132.011 C 239.569 131.273,239.450 130.870,239.521 130.120 C 239.592 129.380,239.523 129.139,239.213 129.041 C 238.993 128.971,238.706 128.606,238.575 128.230 C 238.357 127.604,238.228 127.539,237.082 127.473 C 235.516 127.383,235.248 126.637,236.653 126.277 C 237.107 126.160,237.637 125.928,237.831 125.761 C 238.362 125.306,239.710 125.348,239.907 125.826 C 239.997 126.044,240.227 126.223,240.417 126.223 C 240.928 126.223,241.379 127.293,241.225 128.138 C 241.134 128.637,241.246 129.170,241.572 129.788 L 242.053 130.701 242.064 129.817 C 242.073 129.031,242.140 128.933,242.671 128.933 C 243.692 128.933,245.086 127.259,244.313 126.962 C 243.789 126.761,243.873 125.848,244.429 125.702 C 245.133 125.518,244.749 125.162,243.845 125.162 C 243.296 125.162,243.028 125.042,242.975 124.774 C 242.911 124.447,242.781 124.485,242.158 125.009 C 241.325 125.711,240.776 125.805,240.575 125.280 C 240.328 124.637,240.703 124.204,242.128 123.485 C 242.902 123.094,243.482 122.720,243.416 122.654 C 243.351 122.588,242.974 122.701,242.579 122.905 C 241.650 123.386,241.220 123.374,241.023 122.864 C 240.851 122.418,240.996 122.280,242.837 121.149 C 243.881 120.507,243.938 120.422,243.715 119.834 C 243.533 119.356,243.561 119.075,243.834 118.660 C 244.163 118.157,244.153 118.087,243.701 117.771 C 243.319 117.504,243.229 117.229,243.291 116.527 C 243.365 115.688,243.322 115.617,242.666 115.501 C 242.207 115.420,241.932 115.213,241.875 114.907 C 241.827 114.649,241.598 114.258,241.366 114.038 C 241.134 113.818,240.900 113.508,240.847 113.349 C 240.788 113.171,240.357 113.075,239.722 113.100 C 239.049 113.127,238.544 113.006,238.262 112.751 C 237.743 112.281,236.779 112.931,236.961 113.628 C 237.122 114.243,236.679 114.831,236.177 114.671 C 235.690 114.517,235.702 115.242,236.218 117.297 C 236.396 118.006,236.388 118.412,236.189 118.785 C 235.803 119.505,235.188 119.296,234.946 118.361 C 234.352 116.070,232.957 116.380,233.075 118.777 C 233.145 120.178,233.132 120.212,232.543 120.212 C 232.026 120.212,231.939 120.108,231.939 119.490 C 231.939 118.301,230.506 118.558,230.214 119.800 C 229.959 120.884,229.012 121.076,228.647 120.117 C 228.529 119.806,228.320 119.481,228.182 119.396 C 227.792 119.155,227.887 118.564,228.344 118.391 C 228.571 118.304,228.950 117.989,229.186 117.691 C 229.457 117.348,229.867 117.148,230.298 117.148 C 230.738 117.148,231.069 116.981,231.232 116.676 C 231.370 116.417,231.618 116.205,231.782 116.205 C 231.968 116.205,232.080 115.882,232.080 115.350 C 232.080 114.753,232.237 114.367,232.599 114.074 C 232.884 113.844,233.121 113.565,233.126 113.457 C 233.131 113.348,233.475 113.045,233.890 112.784 C 234.714 112.266,235.038 111.491,234.431 111.491 C 233.980 111.491,233.920 110.425,234.355 110.147 C 234.517 110.044,234.808 109.752,235.003 109.499 C 235.348 109.050,235.342 109.048,234.774 109.440 C 233.664 110.203,232.680 109.652,233.321 108.626 C 233.545 108.268,233.531 108.154,233.249 108.046 C 233.057 107.972,232.832 107.700,232.750 107.440 C 232.649 107.122,232.456 107.007,232.156 107.086 C 231.878 107.158,231.333 106.901,230.705 106.402 C 229.013 105.057,228.792 105.333,228.566 109.063 C 228.503 110.114,228.110 110.457,227.578 109.925 C 227.217 109.564,227.181 109.228,227.308 107.435 L 227.455 105.362 226.377 105.362 L 225.299 105.362 225.434 107.071 " stroke="none" fill="#cca47c" fill-rule="evenodd"></path></g></svg>